<?xml version="1.0" encoding="UTF-8"?>
<svg version="1.1" xmlns="http://www.w3.org/2000/svg" width="1024" height="1024">
<path d="M0 0 C337.92 0 675.84 0 1024 0 C1024 337.92 1024 675.84 1024 1024 C686.08 1024 348.16 1024 0 1024 C0 686.08 0 348.16 0 0 Z " fill="#171917" transform="translate(0,0)"/>
<path d="M0 0 C337.92 0 675.84 0 1024 0 C1024 337.92 1024 675.84 1024 1024 C686.08 1024 348.16 1024 0 1024 C0 686.08 0 348.16 0 0 Z M230.4375 132.125 C229.58019287 132.41721436 228.72288574 132.70942871 227.83959961 133.01049805 C212.88816392 138.33098599 199.50217536 146.31236909 187 156 C186.02546875 156.75152344 185.0509375 157.50304687 184.046875 158.27734375 C153.61749825 182.45934846 133.08766901 219.53980599 128.47462785 258.16366196 C127.9747062 262.75855379 127.85587314 267.29012154 127.86298561 271.90875244 C127.86033378 272.76258747 127.85768196 273.61642249 127.85494977 274.4961313 C127.84731274 277.34671604 127.84669976 280.19725731 127.84609985 283.04785156 C127.84208152 285.11670196 127.83764268 287.18555157 127.8328203 289.25440025 C127.82089001 294.93219339 127.81521458 300.60997804 127.81063914 306.28778124 C127.80466946 312.41495345 127.79306295 318.5421156 127.78234863 324.66928101 C127.75785431 339.46444494 127.74320011 354.2596102 127.73028857 369.05478764 C127.72661455 373.23681983 127.72261202 377.41885167 127.7185359 381.60088348 C127.69326764 407.59531823 127.67123555 433.58975367 127.65880775 459.584198 C127.65588679 465.60203046 127.65291918 471.6198629 127.64990234 477.63769531 C127.64953143 478.38528108 127.64916053 479.13286684 127.64877838 479.90310672 C127.636637 504.11316245 127.60571409 528.32314525 127.56398082 552.53316677 C127.52110038 577.45442736 127.49455495 602.37564946 127.48933304 627.29694793 C127.48859272 630.82422672 127.48768206 634.35150545 127.48667526 637.87878418 C127.48648465 638.57288794 127.48629403 639.26699171 127.48609764 639.98212892 C127.48259822 651.10591158 127.46236616 662.22960223 127.43587863 673.35335122 C127.40960274 684.55814293 127.40247277 695.76283128 127.41297992 706.96765912 C127.41814089 713.02647687 127.41544741 719.08500476 127.39051437 725.14377975 C126.92561711 758.92397415 126.92561711 758.92397415 133 792 C133.35863597 793.25936811 133.35863597 793.25936811 133.72451711 794.54417801 C138.50097958 811.14522105 145.73557054 827.06831692 156 841 C156.71285156 842.00804687 157.42570312 843.01609375 158.16015625 844.0546875 C177.66905506 870.6962221 205.24139603 890.23087059 236.625 900.375 C237.31480957 900.6013916 238.00461914 900.8277832 238.71533203 901.06103516 C253.57976283 905.5832197 268.26914844 906.43748343 283.69081116 906.3742218 C285.7317335 906.37696809 287.77265441 906.38102503 289.81357187 906.38626546 C295.37670705 906.39677766 300.9396798 906.38877208 306.50280774 906.37751496 C312.51991959 906.36862739 318.53701122 906.37712955 324.55412292 906.38337708 C335.64468089 906.39229462 346.73519267 906.38772352 357.82574448 906.37621326 C368.07310337 906.36565129 378.32044387 906.36114105 388.56780815 906.36250877 C389.24917289 906.3625928 389.93053763 906.36267683 390.63254979 906.36276341 C393.39884956 906.36311569 396.16514933 906.36349972 398.93144909 906.36392899 C424.84763205 906.36788839 450.76378254 906.35520267 476.67995622 906.33440243 C499.67572444 906.31603279 522.67146155 906.31022126 545.66723633 906.31567383 C547.14406771 906.31602026 548.62089909 906.31636636 550.09773047 906.31671212 C551.19293763 906.31696861 551.19293763 906.31696861 552.31027019 906.31723029 C555.98614652 906.31808391 559.66202286 906.31890769 563.33789921 906.31969929 C564.0631875 906.31985637 564.7884758 906.32001345 565.53574253 906.32017529 C584.78506325 906.32417029 604.03438101 906.31868314 623.28369993 906.310188 C625.3562991 906.30928101 627.42889827 906.30837536 629.50149745 906.30747276 C630.8762403 906.30687166 632.25098314 906.30626304 633.62572599 906.30564686 C643.18716862 906.30143496 652.74860538 906.30084326 662.31004864 906.30275235 C674.63456989 906.30520105 686.9590652 906.30086405 699.28357918 906.28554235 C705.22174908 906.27831843 711.15987561 906.27420421 717.09804916 906.27878571 C722.54156977 906.28288329 727.9850011 906.27763682 733.42850821 906.26515963 C735.38991167 906.26224901 737.35132364 906.26263908 739.31272484 906.26680271 C754.31675392 906.29574315 768.96416546 905.69465557 783.4375 901.3125 C784.32018555 901.05049805 785.20287109 900.78849609 786.11230469 900.51855469 C807.05249932 894.13168222 825.34260286 884.22569678 842 870 C842.53496094 869.5447998 843.06992187 869.08959961 843.62109375 868.62060547 C850.88929107 862.36755674 857.154046 855.61680868 863 848 C863.72703125 847.10023438 864.4540625 846.20046875 865.203125 845.2734375 C874.6507273 833.28224996 881.49604719 820.22602915 886.8125 805.9375 C887.16119141 805.02524658 887.50988281 804.11299316 887.86914062 803.1730957 C889.05696372 799.81862672 890.0370087 796.42366789 891 793 C891.20742923 792.29162294 891.41485846 791.58324588 891.62857342 790.85340285 C897.85424946 768.63130874 896.70304008 745.62017982 896.62430525 722.76721454 C896.60873212 716.63906463 896.62231728 710.51096493 896.63204956 704.3828125 C896.645671 693.10083855 896.6369503 681.81904778 896.61663339 670.53709921 C896.59799816 660.11411134 896.58966105 649.69117393 896.59120178 639.2681694 C896.59129346 638.57392649 896.59138513 637.87968357 896.59147959 637.16440299 C896.59187281 634.34555799 896.59232246 631.526713 896.59285098 628.70786802 C896.59770932 602.32907646 896.57514316 575.95037425 896.53889475 549.57161045 C896.50688614 526.17841845 896.49485579 502.78530265 896.50097656 479.39208984 C896.50136341 477.88892315 896.50174987 476.38575646 896.50213593 474.88258977 C896.50242295 473.76783643 896.50242295 473.76783643 896.50271577 472.63056282 C896.50367023 468.88887917 896.50458459 465.14719552 896.50545502 461.40551186 C896.50562881 460.66719484 896.5058026 459.92887782 896.50598167 459.16818756 C896.51034365 439.5666312 896.50030848 419.96508298 896.48561716 400.36353242 C896.48509702 399.66565163 896.48457688 398.96777084 896.48404097 398.24874215 C896.48352163 397.5521958 896.48300229 396.85564946 896.4824672 396.13799565 C896.48194946 395.44279057 896.48143172 394.7475855 896.48089829 394.0313136 C896.47985022 392.6313652 896.47879001 391.23141682 896.47771757 389.83146844 C896.47035986 380.10368992 896.46824452 370.37592302 896.46971158 360.64814206 C896.4715629 348.11177039 896.46306755 335.57547571 896.43807012 323.03912146 C896.42625727 317.00127153 896.41905355 310.96351627 896.42490768 304.92565536 C896.43011813 299.38788195 896.4212563 293.8503077 896.40163308 288.31256823 C896.3969334 286.32039855 896.39714132 284.3282092 896.40304345 282.33604272 C896.44631262 266.15509445 895.02397098 250.27950937 890.4375 234.6875 C890.18846924 233.83341553 889.93943848 232.97933105 889.68286133 232.09936523 C884.85579725 216.35881444 877.65321842 201.3398747 868 188 C867.58669434 187.42878418 867.17338867 186.85756836 866.74755859 186.26904297 C842.42762512 153.05893449 807.27751033 132.67212599 766.89006639 125.82544041 C757.77654958 124.43734161 748.70488215 124.44637993 739.50704956 124.49206543 C737.43991158 124.48744225 735.37277689 124.48107994 733.30564892 124.47315645 C727.69308817 124.45663475 722.08080346 124.46463037 716.46824241 124.47710133 C710.38909883 124.4862205 704.30999992 124.47214839 698.23086548 124.46118164 C687.03374788 124.44448603 675.83671745 124.44584307 664.63960177 124.45682751 C654.29321447 124.46692646 643.9468589 124.46949952 633.60046768 124.46473694 C632.91170906 124.4644314 632.22295044 124.46412586 631.51332034 124.46381106 C628.71680041 124.46256552 625.92028049 124.4612919 623.12376059 124.459972 C596.94174874 124.44776224 570.75979201 124.45878857 544.57778868 124.48035959 C521.35960955 124.49934335 498.14151821 124.49763691 474.92333984 124.47851562 C448.78337959 124.4570596 422.64346794 124.44862425 396.5035001 124.46096468 C393.71296701 124.46224738 390.9224339 124.46349875 388.13190079 124.46473694 C387.10139513 124.4652114 387.10139513 124.4652114 386.05007118 124.46569545 C375.71340964 124.47022947 365.37678344 124.46495408 355.0401268 124.45481873 C343.27866839 124.44334318 331.51729366 124.4467049 319.7558416 124.4679417 C313.76241269 124.47840922 307.76916129 124.48264755 301.77573395 124.46934509 C296.27721838 124.45732619 290.77904297 124.46413864 285.28055777 124.4852553 C283.3037562 124.48968139 281.3269252 124.48754647 279.35014294 124.47775215 C262.55609939 124.40100042 246.37787654 126.63129024 230.4375 132.125 Z " fill="#171917" transform="translate(0,0)"/>
<path d="M0 0 C2.06053277 -0.00418057 4.12106323 -0.00966202 6.18158948 -0.01631981 C11.80379979 -0.03069862 17.42586256 -0.02655343 23.04808068 -0.019153 C29.12736378 -0.01440472 35.20661571 -0.02694594 41.28588867 -0.03717041 C52.4947187 -0.05334197 63.70350334 -0.05581031 74.91233885 -0.05086542 C85.27304076 -0.04629733 95.63372536 -0.04692097 105.99442673 -0.05270576 C107.38751852 -0.05346265 108.78061032 -0.05421863 110.17370211 -0.05497371 C112.27333487 -0.05611899 114.37296762 -0.05726887 116.47260036 -0.05843295 C135.9790627 -0.06912918 155.48551931 -0.07387241 174.99198341 -0.06596279 C176.09361202 -0.06551703 176.09361202 -0.06551703 177.21749574 -0.06506227 C183.18036292 -0.06261367 189.14323004 -0.06000191 195.10609715 -0.05737813 C218.35016766 -0.04728154 241.59416589 -0.05562352 264.83822632 -0.07887268 C290.99427281 -0.10499256 317.1502758 -0.11778034 343.30633581 -0.11068493 C346.0998067 -0.10996895 348.8932776 -0.10929455 351.6867485 -0.10864449 C352.7183704 -0.10838977 352.7183704 -0.10838977 353.77083314 -0.10812991 C364.11625747 -0.10583467 374.46164119 -0.11376687 384.80705643 -0.12693596 C396.58543291 -0.14190302 408.36373102 -0.14224485 420.14211138 -0.12486505 C426.14385105 -0.11638272 432.14541047 -0.11413749 438.1471405 -0.1295166 C443.65586286 -0.14345681 449.16425213 -0.13848172 454.67295568 -0.11927737 C456.6513205 -0.11554542 458.62971262 -0.1183569 460.60805292 -0.12888902 C500.4845135 -0.32585353 536.77718806 13.53703638 566.24203491 40.38768005 C567.17660522 41.2384613 568.11117554 42.08924255 569.07406616 42.96580505 C589.48172119 62.46839955 602.80151404 88.12692703 610.11703491 115.20018005 C610.30821899 115.90328308 610.49940308 116.60638611 610.69638062 117.33079529 C614.26133999 131.50810309 614.53602206 145.63588109 614.51618958 160.15705872 C614.52064969 162.23108856 614.52596625 164.30511671 614.5320583 166.3791424 C614.54615596 172.0433933 614.54790316 177.7075891 614.54746139 183.37185502 C614.54911691 189.49483755 614.56219705 195.61779786 614.57365417 201.74076843 C614.595262 214.41809914 614.60390379 227.09540681 614.60868918 239.77275163 C614.60895035 240.46073923 614.60921153 241.14872683 614.60948062 241.85756254 C614.60974089 242.54703375 614.61000117 243.23650497 614.61026933 243.94686925 C614.61335988 251.61028379 614.61986754 259.27369491 614.62648201 266.93710709 C614.64612117 290.11295845 614.66253036 313.28880614 614.66535854 336.46466637 C614.6654526 337.20490724 614.66554667 337.94514811 614.66564358 338.70782052 C614.66602203 341.70728913 614.66638602 344.70675775 614.66674656 347.70622637 C614.66701827 349.96348828 614.66729495 352.22075018 614.66757202 354.47801208 C614.66766004 355.22390053 614.66774807 355.96978898 614.66783876 356.7382801 C614.67074203 380.15676961 614.69282377 403.57517645 614.72909546 426.99363708 C614.7699121 453.34673683 614.79351778 479.69978025 614.79381806 506.05291331 C614.79391487 508.86864067 614.79408157 511.68436801 614.79429817 514.50009537 C614.79434229 515.19332013 614.7943864 515.88654489 614.79443185 516.60077646 C614.79554696 527.70748725 614.81288614 538.81411452 614.83611749 549.9207985 C614.85907462 561.10470015 614.8626914 572.28849178 614.84856819 583.47241835 C614.84143299 589.5191217 614.84210968 595.56553867 614.86497879 601.61220932 C615.03483441 649.40098928 608.73979791 692.18629347 576.24203491 729.38768005 C575.81664429 729.88010193 575.39125366 730.3725238 574.95297241 730.87986755 C550.80917276 758.69465429 515.36583577 777.71665322 478.50965762 781.1886009 C470.82507864 781.65678209 463.11582779 781.53598452 455.41992188 781.53485107 C453.38789309 781.53815378 451.35586495 781.54188021 449.32383764 781.54599255 C443.75266496 781.55597411 438.18150306 781.55972312 432.61032271 781.56238186 C426.59642187 781.56629628 420.58252947 781.5758737 414.56863403 781.58459473 C400.73856807 781.60339327 386.90850151 781.61360964 373.07842643 781.62205541 C366.23686174 781.62626883 359.39529793 781.63148986 352.55373398 781.63673994 C329.11187766 781.65462568 305.67002107 781.66961961 282.22815895 781.67706013 C280.75783824 781.67753488 279.28751752 781.67801076 277.81719681 781.67848779 C277.08808875 781.67872417 276.3589807 781.67896054 275.60777846 781.67920408 C271.91408659 781.68040521 268.22039474 781.68162068 264.52670288 781.68284607 C263.42719051 781.68320629 263.42719051 781.68320629 262.30546577 781.6835738 C238.55217406 781.69146259 214.79893234 781.71488805 191.04566245 781.74740201 C165.90356694 781.7817539 140.76150066 781.80141618 115.61938131 781.80470437 C112.85562284 781.80512187 110.09186438 781.80560143 107.32810593 781.80612755 C106.64764305 781.80625074 105.96718018 781.80637393 105.26609722 781.80650086 C94.34875034 781.8088261 83.43146187 781.82444795 72.51413575 781.84496939 C61.52576056 781.86529559 50.53744557 781.87034109 39.54905362 781.86119876 C33.60430272 781.85666643 27.65974024 781.8584783 21.71501541 781.87796021 C16.26044776 781.89568056 10.80620476 781.8945226 5.35163324 781.87906291 C3.39061625 781.87670028 1.42957625 781.88093954 -0.53140573 781.89289156 C-17.22558091 781.98824311 -33.34263488 779.76339524 -49.19546509 774.32518005 C-50.04761597 774.03554382 -50.89976685 773.74590759 -51.77774048 773.44749451 C-72.61486273 766.02378105 -90.51261417 754.1097805 -106.29116821 738.79881287 C-107.61822462 737.52211745 -108.97556295 736.27708322 -110.33609009 735.03611755 C-134.92531626 711.95397299 -152.2668612 674.17717455 -153.8515152 640.3932443 C-153.88797776 638.16530782 -153.89441882 635.93928862 -153.88939285 633.71105671 C-153.89144549 632.85803139 -153.89349812 632.00500607 -153.89561296 631.1261315 C-153.90126965 628.26630371 -153.89982734 625.40652429 -153.89840698 622.54669189 C-153.9009914 620.47600442 -153.90400478 618.40531744 -153.90741038 616.33463115 C-153.91547501 610.64266318 -153.91726966 604.95070783 -153.91800785 599.25873482 C-153.91985941 593.1200369 -153.92740741 586.98134551 -153.93414307 580.84265137 C-153.94843277 566.71636562 -153.95425322 552.59008402 -153.95883501 538.46379278 C-153.96117287 531.47743382 -153.9647758 524.49107568 -153.96853039 517.50471737 C-153.98136663 493.5727072 -153.99208429 469.6406975 -153.99553299 445.70868397 C-153.99575462 444.2067658 -153.9959764 442.70484764 -153.99619834 441.20292948 C-153.99641898 439.69744675 -153.99663946 438.19196402 -153.99685979 436.6864813 C-153.99730233 433.66638935 -153.99774945 430.64629739 -153.99819946 427.62620544 C-153.99830885 426.87740011 -153.99841824 426.12859478 -153.99853095 425.35709838 C-154.00215837 401.09874956 -154.01806612 376.84043069 -154.04138983 352.58209334 C-154.0660238 326.91384958 -154.07970754 301.24562292 -154.08090091 275.57736701 C-154.08107235 272.7557069 -154.08128777 269.9340468 -154.08153534 267.1123867 C-154.08159111 266.41765282 -154.08164688 265.72291894 -154.08170434 265.00713252 C-154.08285188 253.85810495 -154.09384883 242.70910825 -154.10842239 231.56009107 C-154.12283791 220.33723139 -154.12574498 209.1144104 -154.11798242 197.89154045 C-154.11408787 191.81925144 -154.11494685 185.7470656 -154.12903976 179.67478943 C-154.14185086 174.10357238 -154.14051835 168.53253527 -154.12844905 162.96131822 C-154.12650443 160.9578184 -154.12951253 158.95430552 -154.13829342 156.950824 C-154.31446007 113.99743012 -139.52639863 74.71272787 -109.18667603 43.82029724 C-79.81986161 14.37319079 -41.20151847 -0.13724532 0 0 Z M-77.75796509 63.38768005 C-78.62808228 64.0940863 -79.49819946 64.80049255 -80.39468384 65.52830505 C-100.93045096 82.93696164 -114.50344212 109.84276396 -117.75796509 136.38768005 C-117.89484488 139.29529269 -117.89939778 142.19789469 -117.89497948 145.1083622 C-117.8976313 145.96615304 -117.90028313 146.82394388 -117.90301532 147.70772839 C-117.91067837 150.58377362 -117.91126634 153.45977594 -117.91186523 156.33583069 C-117.91588185 158.41818014 -117.9203204 160.50052882 -117.92514479 162.58287656 C-117.93709426 168.30711558 -117.94275499 174.03134617 -117.94732594 179.75559521 C-117.95328832 185.92907957 -117.96489668 192.10255391 -117.97561646 198.27603149 C-118.00012757 213.18769458 -118.01476701 228.099359 -118.02767652 243.0110355 C-118.03134907 247.22458502 -118.03535179 251.43813419 -118.03942919 255.65168333 C-118.06469568 281.83055825 -118.08673301 308.00943383 -118.09915733 334.18831825 C-118.10207842 340.25086596 -118.105046 346.31341364 -118.10806274 352.3759613 C-118.10843365 353.1291204 -118.10880456 353.88227951 -118.10918671 354.65826161 C-118.12133122 379.05514769 -118.15225824 403.45196145 -118.19398427 427.8488136 C-118.23683964 452.95198001 -118.263407 478.05510825 -118.26863205 503.15831222 C-118.2693724 506.70939157 -118.27028307 510.26047086 -118.27128983 513.81155014 C-118.27148044 514.51036605 -118.27167105 515.20918196 -118.27186745 515.9291741 C-118.27537071 527.14126054 -118.29562086 538.35325594 -118.32208646 549.56530903 C-118.34832749 560.85317085 -118.35550599 572.14093005 -118.34498517 583.42882766 C-118.33981521 589.53574134 -118.34257718 595.64236747 -118.36745071 601.74923897 C-118.3900845 607.35329996 -118.38909426 612.95686916 -118.37024684 618.5609396 C-118.36746653 620.57522938 -118.37293401 622.58955354 -118.38805978 624.60378845 C-118.60150368 654.9101389 -108.8629878 681.83441922 -89.75796509 705.38768005 C-89.0734729 706.26810974 -88.38898071 707.14853943 -87.68374634 708.0556488 C-84.74164309 711.61839857 -81.29244436 714.43000816 -77.75796509 717.38768005 C-77.01546509 718.02963318 -76.27296509 718.6715863 -75.50796509 719.33299255 C-56.86101925 734.97434515 -31.73001966 745.57567955 -7.270401 745.51910782 C-6.43782656 745.52116045 -5.60525212 745.52321309 -4.74744815 745.52532792 C-1.95723766 745.53098294 0.83292323 745.52954252 3.62313843 745.52812195 C5.64376698 745.53070645 7.66439502 745.53371984 9.68502235 745.53712535 C15.238423 745.54518872 20.79181071 745.54698455 26.34521651 745.54772282 C32.33453324 745.54957454 38.32384327 745.5571225 44.31315613 745.56385803 C58.09333874 745.57814547 71.87351954 745.58396744 85.65370774 745.58854998 C92.46700305 745.59088761 99.28029751 745.59449046 106.09359217 745.59824535 C129.42743488 745.61107988 152.76127713 745.62179884 176.09512329 745.62524796 C177.55934334 745.62546959 179.02356339 745.62569137 180.48778343 745.62591331 C181.95549138 745.62613395 183.42319934 745.62635443 184.89090729 745.62657475 C187.83526103 745.6270173 190.77961477 745.62746442 193.72396851 745.62791443 C194.45399468 745.62802382 195.18402085 745.62813321 195.93616903 745.62824592 C219.59894355 745.63187528 243.26168742 745.64779128 266.9244502 745.67110479 C291.95637477 745.69572205 316.98828183 745.70942169 342.02021885 745.71061587 C344.77017276 745.71078732 347.52012666 745.71100275 350.27008057 745.71125031 C350.9471706 745.71130607 351.62426064 745.71136184 352.32186856 745.7114193 C363.20037264 745.71256813 374.07884516 745.72357586 384.95733859 745.73813736 C395.90006225 745.7525311 406.8427437 745.75547144 417.78547412 745.74769738 C423.70930012 745.74379533 429.63302034 745.74469885 435.55683327 745.75875473 C440.98654144 745.77152009 446.41606461 745.77027291 451.84577262 745.75816402 C453.80342339 745.75621159 455.76108739 745.7592643 457.7187196 745.76800838 C490.36732911 745.90453145 520.29448668 734.89426284 543.82357788 711.7978363 C563.28107003 692.45420899 578.2637926 665.26377723 578.37882471 637.17738691 C578.37705524 636.38403357 578.37528577 635.59068022 578.37346268 634.77328587 C578.37551531 633.91485129 578.37756794 633.05641671 578.37968278 632.17196897 C578.38534924 629.28776796 578.38389596 626.40361477 578.38247681 623.51940918 C578.38506065 621.4336469 578.38807387 619.34788511 578.39148021 617.262124 C578.39955134 611.52403891 578.40133985 605.78596633 578.40207767 600.04787624 C578.40392806 593.86153952 578.41147539 587.6752093 578.41821289 581.48887634 C578.43250665 567.25199046 578.43832321 553.01510869 578.44290484 538.77821735 C578.44524181 531.73992912 578.44884461 524.70164169 578.45260021 517.66335409 C578.46543588 493.56167042 578.47615441 469.45998721 578.47960281 445.35830021 C578.47982444 443.84557824 578.48004623 442.33285628 578.48026817 440.82013431 C578.4804888 439.30379275 578.48070929 437.7874512 578.48092961 436.27110964 C578.48137216 433.2291559 578.48181928 430.18720216 578.48226929 427.14524841 C578.48237868 426.39102187 578.48248807 425.63679533 578.48260077 424.85971344 C578.48622989 400.41422736 578.50214434 375.96877097 578.52545965 351.52329626 C578.55007528 325.66709379 578.56377648 299.81090827 578.56497073 273.95469373 C578.56514218 271.11429083 578.56535761 268.27388793 578.56560516 265.43348503 C578.56568882 264.38443461 578.56568882 264.38443461 578.56577416 263.31419125 C578.56692318 252.07578725 578.57793265 240.83741378 578.59249222 229.59902008 C578.60688395 218.29434605 578.60982739 206.989722 578.60205224 195.68503738 C578.59814937 189.56476876 578.59905771 183.44460253 578.61310959 177.32434654 C578.62587013 171.71510941 578.62463195 166.10605139 578.61251888 160.49681442 C578.61056561 158.47385834 578.61362308 156.45088948 578.62236324 154.42795134 C578.68101174 139.92878285 577.56307165 126.49877234 572.49203491 112.76268005 C572.23454468 112.05522644 571.97705444 111.34777283 571.71176147 110.61888123 C560.51164968 80.81354171 537.02816116 57.45482332 508.24203491 44.38768005 C498.24558371 40.20354453 487.89266918 38.0717547 477.24203491 36.38768005 C476.18431078 36.21346692 475.12658665 36.03925379 474.03681028 35.85976148 C469.96186547 35.35282614 465.96708705 35.24662636 461.86937904 35.25625229 C460.63914409 35.25317334 460.63914409 35.25317334 459.38405591 35.25003219 C456.63606765 35.24437817 453.88812976 35.24581747 451.14013672 35.24723816 C449.14980715 35.2446536 447.15947809 35.24164018 445.16914976 35.23823476 C439.69942132 35.23017201 434.22970601 35.22837559 428.75997233 35.22763729 C422.86059769 35.22578544 416.96122984 35.21823735 411.06185913 35.21150208 C397.48801131 35.19721454 383.91416451 35.19139245 370.34031073 35.18681013 C363.62800708 35.18447229 356.91570429 35.18086939 350.20340131 35.17711475 C327.21247884 35.16427958 304.22155685 35.15356118 281.23063087 35.15011215 C279.78790214 35.14989052 278.34517341 35.14966874 276.90244468 35.1494468 C275.4562878 35.14922616 274.01013091 35.14900568 272.56397402 35.14878535 C269.66287843 35.14834281 266.76178284 35.14789569 263.86068726 35.14744568 C263.1413865 35.14733629 262.42208574 35.1472269 261.680988 35.14711419 C238.37170548 35.14348573 215.0624541 35.12757347 191.7531835 35.10425531 C167.09171971 35.07962971 142.43027371 35.06593801 117.76879728 35.06474423 C115.05868808 35.06457279 112.34857889 35.06435737 109.6384697 35.0641098 C108.97119656 35.06405403 108.30392342 35.06399826 107.61642988 35.06394081 C97.56437854 35.06286361 87.51235736 35.05352121 77.4603157 35.03992462 C66.01645782 35.02449989 54.5726533 35.01941713 43.128787 35.02766272 C37.2938243 35.03156101 31.458969 35.03067979 25.62401962 35.01660538 C20.27315734 35.00381715 14.9224826 35.00510705 9.57162039 35.01719609 C7.64488939 35.0191446 5.71814487 35.01611418 3.79143281 35.00735173 C-26.91700009 34.87663451 -54.08708594 43.48766385 -77.75796509 63.38768005 Z " fill="#F5464B" transform="translate(281.7579650878906,124.61231994628906)"/>
<path d="M0 0 C1.11651947 -0.0087616 2.23303894 -0.01752319 3.38339233 -0.02655029 C7.05824146 -0.04847773 10.73187782 -0.03401163 14.40673828 -0.01708984 C16.9720991 -0.02046032 19.53745835 -0.02531487 22.10281372 -0.03158569 C27.47431145 -0.03894851 32.84535779 -0.02875275 38.21679688 -0.00488281 C44.40410798 0.02229734 50.59059434 0.01352959 56.77788532 -0.01401484 C62.75592933 -0.03955085 68.73357398 -0.03670491 74.71167374 -0.02210617 C77.24329877 -0.01878176 79.77494498 -0.02282506 82.30654526 -0.03450394 C85.85335874 -0.04727433 89.39861433 -0.02774471 92.9453125 0 C94.49955933 -0.01518173 94.49955933 -0.01518173 96.08520508 -0.03067017 C103.1827776 0.07162665 108.68236402 1.62980712 114.60205078 5.64697266 C118.34296691 9.59261861 119.72131609 13.88829672 119.7492218 19.24382019 C119.75995476 20.65886337 119.75995476 20.65886337 119.77090454 22.10249329 C119.77359344 23.13577255 119.77628235 24.16905182 119.77905273 25.23364258 C119.78562393 26.32338379 119.79219513 27.413125 119.79896545 28.53588867 C119.8187092 32.14974026 119.83036397 35.76355025 119.84033203 39.37744141 C119.84440756 40.61138453 119.84848309 41.84532764 119.85268211 43.11666298 C119.87139627 48.97501213 119.88596023 54.83334492 119.89429408 60.69171828 C119.90405607 67.44170691 119.93034954 74.1913667 119.97079498 80.94123954 C120.00467097 86.79690102 120.01644551 92.65245286 120.02049828 98.50820351 C120.02536726 100.99405457 120.03699002 103.47990205 120.05553627 105.96568871 C120.07990442 109.4485012 120.07896628 112.93045828 120.07202148 116.41333008 C120.09123657 117.94806725 120.09123657 117.94806725 120.11083984 119.5138092 C120.06577757 125.72730554 119.19473046 130.47602082 115.60205078 135.64697266 C111.3255419 139.70965609 107.61004703 141.89124953 101.68840027 141.91439819 C100.20602119 141.92719315 100.20602119 141.92719315 98.69369507 141.94024658 C97.61568634 141.93934021 96.53767761 141.93843384 95.42700195 141.9375 C94.28674057 141.94421722 93.14647919 141.95093445 91.97166443 141.95785522 C88.19607199 141.97687808 84.42065693 141.98076171 80.64501953 141.98291016 C78.02191596 141.98933541 75.39881311 141.99606356 72.77571106 142.00308228 C67.27372075 142.01586963 61.77177856 142.0188476 56.26977539 142.01757812 C49.92016889 142.0163775 43.57090273 142.03746446 37.22138232 142.06906545 C31.10352766 142.09842324 24.98583562 142.10555275 18.8679142 142.10435867 C16.26960168 142.1067185 13.67128663 142.1155634 11.07301903 142.13102341 C7.43682051 142.15063191 3.80149598 142.14486432 0.1652832 142.1328125 C-0.90665283 142.14405151 -1.97858887 142.15529053 -3.08300781 142.16687012 C-9.41817591 142.11354923 -13.23481902 141.39669647 -18.39794922 137.64697266 C-22.60881874 133.20848856 -24.63759218 128.8990429 -24.67210388 122.77165222 C-24.68207901 121.81712662 -24.69205414 120.86260101 -24.70233154 119.87915039 C-24.70332855 118.32599121 -24.70332855 118.32599121 -24.7043457 116.74145508 C-24.71266922 115.64166824 -24.72099274 114.54188141 -24.72956848 113.4087677 C-24.75366253 109.77328958 -24.76244 106.1379909 -24.76904297 102.50244141 C-24.77800972 99.9728439 -24.78713157 97.44324693 -24.79640198 94.91365051 C-24.81289292 89.61014179 -24.82062524 84.30670021 -24.82348633 79.00317383 C-24.82711922 72.88695313 -24.85700148 66.77123496 -24.89889091 60.65516776 C-24.93786275 54.7567893 -24.94908078 48.85856074 -24.95021248 42.96004677 C-24.95441467 40.45744413 -24.96684877 37.95484106 -24.98773003 35.45232201 C-25.01464282 31.94799663 -25.00981782 28.44505045 -24.99731445 24.94067383 C-25.01214874 23.91130707 -25.02698303 22.88194031 -25.04226685 21.82138062 C-24.9753631 15.22268366 -23.94718386 10.58451622 -19.39794922 5.64697266 C-13.53936276 0.24248776 -7.69257521 -0.07484789 0 0 Z " fill="#03A4D3" transform="translate(299.39794921875,374.35302734375)"/>
<path d="M0 0 C0.96019043 -0.0071553 1.92038086 -0.01431061 2.90966797 -0.02168274 C3.96164871 -0.02437164 5.01362946 -0.02706055 6.0974884 -0.02983093 C7.76136093 -0.03968773 7.76136093 -0.03968773 9.45884705 -0.04974365 C13.13762985 -0.06948852 16.8163718 -0.08114238 20.49519348 -0.09111023 C21.75120173 -0.09518576 23.00720997 -0.09926128 24.30127907 -0.10346031 C30.2642792 -0.12217476 36.22726635 -0.13673868 42.19028872 -0.14507228 C49.06139581 -0.15483469 55.9321799 -0.1811292 62.80317324 -0.22157317 C68.76347262 -0.25544577 74.72369345 -0.26722343 80.68409157 -0.27127647 C83.21459962 -0.27614597 85.74510414 -0.28777017 88.27554893 -0.30631447 C91.82062289 -0.33067807 95.36485625 -0.32974529 98.9099884 -0.32279968 C99.95184799 -0.33560974 100.99370758 -0.3484198 102.06713867 -0.36161804 C109.19685385 -0.31080416 114.83732994 0.76841938 120.16706848 5.92842102 C120.52929504 6.49560852 120.89152161 7.06279602 121.26472473 7.64717102 C121.83513489 8.49795227 121.83513489 8.49795227 122.41706848 9.36592102 C124.16234618 12.7815718 124.45441284 16.03008261 124.47439575 19.8263092 C124.48512871 21.23079315 124.48512871 21.23079315 124.49607849 22.66365051 C124.4987674 23.68398376 124.5014563 24.70431702 124.50422668 25.75556946 C124.51079788 26.83570313 124.51736908 27.91583679 124.5241394 29.02870178 C124.54385645 32.60465057 124.55553116 36.18055741 124.56550598 39.75654602 C124.56958151 40.97853951 124.57365704 42.20053299 124.57785606 43.45955658 C124.59870941 49.9267154 124.61301468 56.39385304 124.62239075 62.86103821 C124.63244923 69.53699003 124.66786205 76.21256249 124.70756245 82.88840866 C124.73371809 88.02545284 124.74208165 93.16241749 124.74567223 98.2995224 C124.75054039 100.76025392 124.76216083 103.22098183 124.78071022 105.68164825 C124.80507949 109.12843177 124.80414021 112.57435101 124.79719543 116.02119446 C124.81641052 117.53954895 124.81641052 117.53954895 124.83601379 119.08857727 C124.78589512 125.92812227 123.69376684 131.61017889 118.84444141 136.70502853 C114.81832603 140.22122856 111.71764078 141.26857017 106.48913574 141.29434204 C104.99402969 141.305075 104.99402969 141.305075 103.46871948 141.31602478 C102.3761937 141.31871368 101.28366791 141.32140259 100.15803528 141.32417297 C99.00656006 141.33074417 97.85508484 141.33731537 96.66871643 141.34408569 C92.85045815 141.36382953 89.0322392 141.37548294 85.21394348 141.38545227 C83.91130869 141.3895278 82.6086739 141.39360332 81.26656532 141.39780235 C75.08465641 141.41684755 68.9027594 141.43108029 62.7208268 141.43941432 C55.59048297 141.44918634 48.4604496 141.47550731 41.33021516 141.51591522 C35.81502957 141.54609545 30.2999329 141.56088496 24.78466636 141.56419533 C21.49235943 141.56654359 18.20045998 141.57745239 14.90822411 141.60065651 C11.23342916 141.62494973 7.55944809 141.62410046 3.88459778 141.61714172 C2.79814468 141.62995178 1.71169159 141.64276184 0.59231567 141.65596008 C-5.49023714 141.61394231 -9.03815271 141.20492039 -13.67277527 137.14717102 C-15.31730652 135.33076477 -15.31730652 135.33076477 -16.48527527 133.58467102 C-16.88359558 133.00588196 -17.28191589 132.4270929 -17.69230652 131.83076477 C-19.50189244 128.72346783 -19.80149228 126.09804323 -19.81994629 122.58828735 C-19.83067924 121.1858654 -19.83067924 121.1858654 -19.84162903 119.75511169 C-19.84431793 118.73118317 -19.84700684 117.70725464 -19.84977722 116.65229797 C-19.85634842 115.57231033 -19.86291962 114.49232269 -19.86968994 113.37960815 C-19.88943311 109.79822218 -19.90108835 106.21687817 -19.91105652 102.63545227 C-19.91513205 101.41254171 -19.91920757 100.18963116 -19.9234066 98.9296627 C-19.94427246 92.45602461 -19.95857153 85.98240774 -19.96794128 79.50874329 C-19.97599909 74.15154119 -19.99711608 68.79456345 -20.02946472 63.43745422 C-20.06789856 56.9695164 -20.08670602 50.50180607 -20.09122276 44.03375816 C-20.09609148 41.57023558 -20.1077135 39.10671662 -20.12626076 36.64325905 C-20.15063125 33.19157722 -20.14969036 29.74075842 -20.14274597 26.28901672 C-20.16196106 24.76830566 -20.16196106 24.76830566 -20.18156433 23.21687317 C-20.12887062 16.01495289 -18.81456151 10.32513906 -13.63761902 5.08857727 C-12.96859558 4.63353821 -12.29957214 4.17849915 -11.61027527 3.70967102 C-10.93867371 3.23658508 -10.26707214 2.76349915 -9.57511902 2.27607727 C-6.33900696 0.35567402 -3.67856861 0.0188291 0 0 Z " fill="#03A4D3" transform="translate(294.6727752685547,212.8528289794922)"/>
<path d="M0 0 C0.95177628 -0.0071553 1.90355255 -0.01431061 2.88417053 -0.02168274 C3.92680054 -0.02437164 4.96943054 -0.02706055 6.0436554 -0.02983093 C7.14315018 -0.03640213 8.24264496 -0.04297333 9.37545776 -0.04974365 C13.02177496 -0.06948796 16.66805093 -0.08114227 20.31440735 -0.09111023 C21.55938303 -0.09518576 22.80435871 -0.09926128 24.08706093 -0.10346031 C29.99773531 -0.12217461 35.90839659 -0.13673856 41.81909341 -0.14507228 C48.62964125 -0.15483449 55.43986321 -0.18112848 62.25029629 -0.22157317 C68.15826988 -0.25544741 74.06616423 -0.26722357 79.97423744 -0.27127647 C82.482417 -0.27614571 84.990593 -0.2877692 87.49870872 -0.30631447 C91.01265193 -0.33068033 94.52574719 -0.32974489 98.03974915 -0.32279968 C99.072258 -0.33560974 100.10476685 -0.3484198 101.16856384 -0.36161804 C108.42617735 -0.30944201 114.1438999 0.96255733 119.42378235 6.18232727 C119.87882141 6.85135071 120.33386047 7.52037415 120.8026886 8.20967102 C121.27577454 8.88127258 121.74886047 9.55287415 122.23628235 10.24482727 C124.10604826 13.39560927 124.49293102 15.9959797 124.51235962 19.57870483 C124.52309258 20.93892761 124.52309258 20.93892761 124.53404236 22.32662964 C124.53673126 23.31936386 124.53942017 24.31209808 124.54219055 25.33491516 C124.54876175 26.3824295 124.55533295 27.42994385 124.56210327 28.50920105 C124.5818481 31.98357717 124.5935034 35.45790998 124.60346985 38.93232727 C124.60754538 40.11964384 124.6116209 41.30696041 124.61581993 42.53025627 C124.63668869 48.81816815 124.65098526 55.10605816 124.66035461 61.39399719 C124.67140266 67.87808291 124.70578218 74.3618239 124.74552631 80.845788 C124.77172173 85.8396568 124.78004923 90.83344396 124.78363609 95.82737541 C124.78849678 98.21667743 124.8000959 100.60597592 124.81867409 102.99521065 C124.84312005 106.34830295 124.84208974 109.70051032 124.8351593 113.05366516 C124.85437439 114.52151207 124.85437439 114.52151207 124.87397766 116.01901245 C124.82130104 123.04796023 123.70569312 130.32545227 118.91780567 135.80305576 C114.70848392 139.44710534 111.04654817 141.38913604 105.50296021 141.42805481 C104.03753784 141.44518524 104.03753784 141.44518524 102.54251099 141.46266174 C101.47699509 141.46489746 100.41147919 141.46713318 99.31367493 141.46943665 C97.62273209 141.48433136 97.62273209 141.48433136 95.89762878 141.49952698 C92.16413437 141.52876216 88.43080998 141.5423737 84.69721985 141.55342102 C82.10132849 141.56492587 79.50543717 141.57644131 76.9095459 141.58796692 C72.15911971 141.6062992 67.40876141 141.61889979 62.65830594 141.62496042 C55.68288186 141.63391016 48.70824391 141.66895473 41.73305875 141.72696161 C35.67819549 141.77555345 29.6237016 141.79085627 23.5686245 141.79431152 C20.99984652 141.80035591 18.43107151 141.81638391 15.86242104 141.84268188 C12.26223877 141.87690521 8.66395517 141.8730193 5.06367493 141.86006165 C4.00828018 141.87849121 2.95288544 141.89692078 1.86550903 141.91590881 C-5.44526594 141.83374357 -10.12275498 140.00196951 -15.6348114 135.14717102 C-18.9292049 130.82327955 -19.75008869 126.82469884 -19.79544067 121.47476196 C-19.8054863 120.53988449 -19.81553192 119.60500702 -19.82588196 118.64179993 C-19.83171295 117.62303772 -19.83754395 116.60427551 -19.84355164 115.55464172 C-19.85822731 113.93685066 -19.85822731 113.93685066 -19.87319946 112.28637695 C-19.9031261 108.71524791 -19.92453149 105.14415624 -19.94340515 101.57295227 C-19.94997698 100.35220694 -19.95654881 99.1314616 -19.96331978 97.87372398 C-19.99590145 91.41190626 -20.02035527 84.95010496 -20.0398407 78.48823547 C-20.05648946 73.1445574 -20.09247432 67.8014377 -20.14237976 62.45796204 C-20.20260435 56.00179971 -20.23331977 49.54612673 -20.24301338 43.08969688 C-20.25156492 40.63254795 -20.27037532 38.17541198 -20.299757 35.71842384 C-20.33872979 32.27392919 -20.3396976 28.83133633 -20.33183289 25.38667297 C-20.3518335 24.37803192 -20.37183411 23.36939087 -20.3924408 22.33018494 C-20.31919143 15.15893895 -18.38537134 10.54670597 -13.6348114 5.14717102 C-9.49081822 1.5466696 -5.46041502 0.02819872 0 0 Z " fill="#03A4D3" transform="translate(624.6348114013672,212.8528289794922)"/>
<path d="M0 0 C1.07706711 -0.00671722 2.15413422 -0.01343445 3.26383972 -0.02035522 C6.8247845 -0.03935301 10.38554089 -0.04326069 13.9465332 -0.04541016 C16.4264992 -0.05183801 18.90646443 -0.05856637 21.38642883 -0.06558228 C26.5873897 -0.07756035 31.78828413 -0.08126266 36.98925781 -0.08007812 C43.63921209 -0.07987518 50.28872697 -0.10715008 56.93860149 -0.14162254 C62.06287067 -0.16391271 67.18703718 -0.16791497 72.31134987 -0.16685867 C74.76204718 -0.16921247 77.21274741 -0.17802345 79.66339684 -0.19352341 C83.10011718 -0.21322048 86.53591966 -0.20732934 89.97265625 -0.1953125 C90.97613098 -0.20655151 91.97960571 -0.21779053 93.01348877 -0.22937012 C100.10376027 -0.16668728 107.43461137 0.90147012 112.96474743 5.73784828 C116.53862486 9.8633562 118.55475963 13.52445323 118.57723999 18.96966553 C118.59003494 20.37414948 118.59003494 20.37414948 118.60308838 21.80700684 C118.60172882 23.33750671 118.60172882 23.33750671 118.6003418 24.89892578 C118.60705902 25.97905945 118.61377625 27.05919312 118.62069702 28.17205811 C118.63971692 31.74805281 118.6436035 35.32386018 118.64575195 38.89990234 C118.65217793 41.38608884 118.65890614 43.87227458 118.66592407 46.35845947 C118.67790743 51.57378899 118.68160388 56.78905222 118.68041992 62.00439453 C118.67908805 68.68037474 118.70750059 75.35586512 118.74196434 82.03176498 C118.76422785 87.16882266 118.76825759 92.30577774 118.76720047 97.44287872 C118.76955795 99.90360226 118.77838966 102.36432857 118.7938652 104.82500458 C118.81350969 108.27182122 118.80769187 111.71771863 118.7956543 115.16455078 C118.80689331 116.17678711 118.81813232 117.18902344 118.82971191 118.23193359 C118.76918351 125.06910043 117.62784575 130.62072247 112.9332943 135.81298447 C106.47526632 141.64206503 99.59739359 141.58833658 91.38256836 141.58105469 C90.29238907 141.58777191 89.20220978 141.59448914 88.07899475 141.60140991 C84.4814089 141.6203806 80.88400968 141.62431357 77.28637695 141.62646484 C74.7806287 141.632893 72.2748812 141.63962137 69.76913452 141.64663696 C64.51868483 141.65860711 59.26828233 141.6624038 54.01782227 141.66113281 C47.96356647 141.65993174 41.90966735 141.68103273 35.85550177 141.71262014 C30.01423255 141.74200208 24.17310368 141.74910683 18.33176804 141.74791336 C15.85429807 141.75027043 13.37682535 141.75909987 10.89940262 141.77457809 C7.43125213 141.79421873 3.96401546 141.78840682 0.49584961 141.77636719 C-0.52259537 141.7876062 -1.54104034 141.79884521 -2.59034729 141.8104248 C-9.41326948 141.75037256 -15.1227422 140.68243318 -20.21240807 135.84320641 C-23.87824582 131.63566333 -25.93266385 128.15346372 -25.96434021 122.57342529 C-25.97431534 121.62868851 -25.98429047 120.68395172 -25.99456787 119.71058655 C-25.99523254 118.68090256 -25.99589722 117.65121857 -25.99658203 116.59033203 C-26.00490555 115.50044479 -26.01322906 114.41055756 -26.02180481 113.28764343 C-26.0459293 109.67919353 -26.05468056 106.07092438 -26.0612793 102.46240234 C-26.07024459 99.95379583 -26.07936641 97.44518987 -26.08863831 94.93658447 C-26.10513809 89.67418679 -26.11286309 84.41183323 -26.11572266 79.14941406 C-26.11935375 73.08035939 -26.1492196 67.01181172 -26.19112724 60.94291186 C-26.23010322 55.09203336 -26.24131723 49.24135466 -26.24244881 43.39035797 C-26.24665124 40.90729272 -26.25908632 38.42422705 -26.27996635 35.94124603 C-26.30688303 32.46315173 -26.30205274 28.98644678 -26.28955078 25.50830078 C-26.30438507 24.48671371 -26.31921936 23.46512665 -26.33450317 22.4125824 C-26.26674884 15.77835302 -24.95643104 11.43391786 -20.69018555 6.29052734 C-14.29634564 0.21637943 -8.43034294 -0.00753853 0 0 Z " fill="#03A4D3" transform="translate(630.690185546875,374.70947265625)"/>
<path d="M0 0 C1.48870857 -0.0129007 1.48870857 -0.0129007 3.00749207 -0.02606201 C4.10047104 -0.03032196 5.19345001 -0.03458191 6.31954956 -0.03897095 C8.04172447 -0.05123718 8.04172447 -0.05123718 9.7986908 -0.06375122 C13.61276727 -0.08864045 17.42680639 -0.10513184 21.24093628 -0.11953735 C23.19251963 -0.12752287 23.19251963 -0.12752287 25.1835289 -0.13566971 C30.65314959 -0.15690875 36.1227581 -0.17603731 41.59240913 -0.1872921 C49.42236361 -0.20351057 57.25182017 -0.23663044 65.08158696 -0.29369295 C70.59083621 -0.3324685 76.09995275 -0.35193402 81.60933483 -0.35721266 C84.89734639 -0.36085731 88.18470689 -0.37530022 91.47259903 -0.4053154 C95.14722665 -0.43694232 98.82060274 -0.43700619 102.49533081 -0.42959595 C103.5761644 -0.44600128 104.65699799 -0.46240662 105.77058411 -0.47930908 C112.49304126 -0.42390873 117.15846955 0.65276072 122.29562378 5.15390015 C125.76372834 9.60018805 127.41301826 13.06302304 127.4427948 18.67481995 C127.45352776 20.06462067 127.45352776 20.06462067 127.46447754 21.48249817 C127.46716644 22.49707596 127.46985535 23.51165375 127.47262573 24.55697632 C127.47919693 25.62721039 127.48576813 26.69744446 127.49253845 27.80010986 C127.51228104 31.34903023 127.52393675 34.89790825 127.53390503 38.4468689 C127.53798056 39.65874689 127.54205608 40.87062489 127.54625511 42.11922646 C127.56712076 48.53450984 127.5814199 54.9497718 127.59078979 61.36508179 C127.60185025 67.98836526 127.63624505 74.61131241 127.67596149 81.23447704 C127.70212031 86.32948934 127.71048105 91.42442146 127.71407127 96.51949501 C127.71893973 98.9606891 127.73056099 101.40187956 127.74910927 103.84300804 C127.77348214 107.26355925 127.77253844 110.68323968 127.76559448 114.10385132 C127.78480957 115.61053627 127.78480957 115.61053627 127.80441284 117.1476593 C127.75407724 123.96628971 126.59933652 129.4993846 121.91904163 134.67665386 C115.40682487 140.55359993 108.44994132 140.45162536 100.16891479 140.44442749 C99.05762207 140.45114471 97.94632935 140.45786194 96.80136108 140.46478271 C93.13403838 140.48375432 89.46689872 140.48768629 85.79953003 140.48983765 C83.24654566 140.49626527 80.69356204 140.5029936 78.14057922 140.51000977 C72.79176834 140.52197982 67.44302547 140.52577654 62.09420776 140.52450562 C55.92291937 140.52330391 49.75198052 140.54441764 43.58078057 140.57599294 C37.629532 140.60535105 31.67838971 140.61248032 25.72706413 140.61128616 C23.20131946 140.61364515 20.67557216 140.62248536 18.14987373 140.6379509 C14.61686341 140.65756196 11.08475232 140.65179144 7.55172729 140.63973999 C6.51098557 140.650979 5.47024384 140.66221802 4.39796448 140.67379761 C-1.86092412 140.61958866 -5.5949216 139.8404227 -10.70437622 136.15390015 C-14.90335978 131.7279445 -16.94680237 127.42300329 -16.97180176 121.30981445 C-16.98033173 120.36225784 -16.98886169 119.41470123 -16.99765015 118.43843079 C-16.99674377 117.41077103 -16.9958374 116.38311127 -16.99490356 115.3243103 C-17.00162079 114.23267075 -17.00833801 113.14103119 -17.01525879 112.01631165 C-17.03425295 108.40848232 -17.03816367 104.80083886 -17.04031372 101.19296265 C-17.04674039 98.68338952 -17.05346865 96.17381715 -17.06048584 93.66424561 C-17.07246196 88.40362341 -17.07625198 83.14304833 -17.07498169 77.88241577 C-17.07378057 71.81282432 -17.09488017 65.74358862 -17.12646902 59.67408717 C-17.15583122 53.82267179 -17.16295623 47.97139662 -17.16176224 42.11991501 C-17.16412126 39.6360364 -17.17296165 37.1521551 -17.18842697 34.66832352 C-17.20804222 31.19267576 -17.20226564 27.71794181 -17.19021606 24.24227905 C-17.20145508 23.21866776 -17.21269409 22.19505646 -17.22427368 21.14042664 C-17.162565 14.12878667 -15.98881665 9.65835094 -11.07156372 4.41171265 C-7.04492807 1.35484265 -5.01448155 0.03229144 0 0 Z " fill="#03A4D3" transform="translate(291.7043762207031,536.8460998535156)"/>
<path d="M0 0 C0.99391754 -0.0071553 1.98783508 -0.01431061 3.01187134 -0.02168274 C4.10642136 -0.02437164 5.20097137 -0.02706055 6.32868958 -0.02983093 C7.47841248 -0.03640213 8.62813538 -0.04297333 9.81269836 -0.04974365 C13.63158732 -0.0695136 17.45043686 -0.08114805 21.2693634 -0.09111023 C22.57166712 -0.09518576 23.87397083 -0.09926128 25.2157383 -0.10346031 C31.39818965 -0.12218307 37.58062119 -0.13674437 43.76309508 -0.14507228 C50.89343922 -0.15483594 58.02347219 -0.18113054 65.15370673 -0.22157317 C70.66803852 -0.25177363 76.18228134 -0.266545 81.6966942 -0.26985329 C84.98848903 -0.27220007 88.27987634 -0.28309338 91.57159996 -0.30631447 C95.24869445 -0.33063971 98.92497689 -0.32975224 102.60212708 -0.32279968 C103.68655594 -0.33560974 104.7709848 -0.3484198 105.88827515 -0.36161804 C111.90835393 -0.32014817 116.7293603 -0.07178094 121.28889465 4.14717102 C127.08669973 10.43012197 128.15775869 15.99583134 128.01765442 24.33906555 C128.02334946 25.42153564 128.02904449 26.50400574 128.03491211 27.61927795 C128.04596608 31.17352398 128.0140296 34.7259029 127.9803009 38.27998352 C127.97672129 40.76141647 127.97536691 43.24285353 127.97613525 45.72428894 C127.97145281 50.91417546 127.94667644 56.10343762 127.90632629 61.29316711 C127.85530353 67.93895905 127.84388551 74.5836381 127.84616184 81.22960091 C127.84534542 86.34949751 127.82888162 91.46924523 127.80715752 96.58909225 C127.79762625 99.03945159 127.79170202 101.48982775 127.78947639 103.94020462 C127.78295775 107.36511631 127.7566675 110.78930896 127.72468567 114.21406555 C127.72672501 115.72603012 127.72672501 115.72603012 127.72880554 117.26853943 C127.64046031 123.75205764 127.01001018 128.96823748 122.64045715 134.07295227 C122.07069153 134.53056946 121.5009259 134.98818665 120.91389465 135.45967102 C120.34928528 135.93017883 119.7846759 136.40068665 119.20295715 136.88545227 C115.39324066 139.39675518 111.91468868 140.39598625 107.37561035 140.42132568 C106.41267059 140.43130081 105.44973083 140.44127594 104.45761108 140.45155334 C103.41282089 140.45221802 102.3680307 140.45288269 101.2915802 140.4535675 C99.62726959 140.46605278 99.62726959 140.46605278 97.92933655 140.47879028 C94.26139313 140.50288556 90.59362757 140.51166195 86.9256134 140.51826477 C84.37359565 140.52723142 81.82157844 140.53635327 79.26956177 140.54562378 C73.91897474 140.56211505 68.56845426 140.5698471 63.21784973 140.57270813 C57.0470994 140.57634107 50.87684713 140.60622362 44.70624894 140.64811271 C38.75554479 140.68708269 32.80498923 140.69830254 26.85415077 140.69943428 C24.32921968 140.7036367 21.80428818 140.7160717 19.27943993 140.73695183 C15.74398536 140.76386212 12.20989803 140.75904032 8.6743927 140.74653625 C7.11631645 140.76878769 7.11631645 140.76878769 5.52676392 140.79148865 C-1.1526188 140.72435343 -5.53655896 139.45526037 -10.71110535 135.14717102 C-16.78999628 128.74833845 -17.01198596 122.86277939 -17.01750183 114.42524719 C-17.02582535 113.3449675 -17.03414886 112.26468781 -17.04272461 111.15167236 C-17.06681613 107.58112481 -17.07559582 104.01075998 -17.0821991 100.44013977 C-17.09116606 97.95538274 -17.10028791 95.47062627 -17.10955811 92.98587036 C-17.12604836 87.77652169 -17.13374831 82.56723729 -17.13664246 77.35786438 C-17.14067499 70.68967066 -17.17970636 64.02217047 -17.22538662 57.35412121 C-17.25515981 52.22135218 -17.26236609 47.08872899 -17.26336861 41.95588112 C-17.26757033 39.49793536 -17.28000257 37.03998915 -17.30088615 34.58212852 C-17.32780408 31.14006134 -17.32297252 27.69939788 -17.31047058 24.25727844 C-17.32530487 23.24661316 -17.34013916 22.23594788 -17.35542297 21.19465637 C-17.2874196 14.60471234 -15.97133901 10.24442785 -11.71110535 5.14717102 C-7.71276863 1.5207726 -5.3457584 0.02636129 0 0 Z " fill="#03A4D3" transform="translate(621.7111053466797,536.8528289794922)"/>
<path d="M0 0 C1.10022491 -0.00700928 2.20044983 -0.01401855 3.33401489 -0.02124023 C6.95340574 -0.03877595 10.57200811 -0.0272124 14.19140625 -0.01367188 C16.71671701 -0.01636804 19.24202676 -0.02025149 21.76733398 -0.02526855 C27.05297824 -0.03115763 32.33841931 -0.0230038 37.62402344 -0.00390625 C43.71811741 0.01785945 49.81167594 0.0108068 55.90575695 -0.01121187 C61.78978231 -0.03161337 67.67360563 -0.02937484 73.55764771 -0.01768494 C76.05185013 -0.01502199 78.54606629 -0.01827215 81.04025269 -0.02760315 C84.52980428 -0.03779383 88.01833656 -0.02223064 91.5078125 0 C92.53246613 -0.00809692 93.55711975 -0.01619385 94.61282349 -0.02453613 C101.83518049 0.06044081 107.55871376 1.35876353 112.8125 6.55273438 C113.26753906 7.22175781 113.72257813 7.89078125 114.19140625 8.58007812 C114.66449219 9.25167969 115.13757813 9.92328125 115.625 10.61523438 C117.51367269 13.79787659 117.88187777 16.42008757 117.90107727 20.03849792 C117.91181023 21.42829865 117.91181023 21.42829865 117.92276001 22.84617615 C117.92544891 23.86075394 117.92813782 24.87533173 117.9309082 25.9206543 C117.9374794 26.99088837 117.9440506 28.06112244 117.95082092 29.16378784 C117.97056351 32.71270821 117.98221922 36.26158622 117.9921875 39.81054688 C117.99626303 41.02242487 118.00033855 42.23430286 118.00453758 43.48290443 C118.02540323 49.89818782 118.03970237 56.31344978 118.04907227 62.72875977 C118.06013272 69.35204324 118.09452752 75.97499039 118.13424397 82.59815502 C118.16040278 87.69316732 118.16876352 92.78809944 118.17235374 97.88317299 C118.1772222 100.32436708 118.18884346 102.76555754 118.20739174 105.20668602 C118.23176461 108.62723722 118.23082092 112.04691766 118.22387695 115.4675293 C118.24309204 116.97421425 118.24309204 116.97421425 118.26269531 118.51133728 C118.21247864 125.31385805 117.08853943 130.92134026 112.34192371 136.04033184 C107.92870676 139.95228721 103.68930129 141.76148172 97.83389282 141.78500366 C96.8695079 141.79353363 95.90512299 141.8020636 94.91151428 141.81085205 C93.86515305 141.80994568 92.81879181 141.80903931 91.74072266 141.80810547 C90.07400261 141.8181813 90.07400261 141.8181813 88.37361145 141.82846069 C84.70085172 141.84745683 81.02827455 141.85136567 77.35546875 141.85351562 C74.80105514 141.85994215 72.24664228 141.8666704 69.69223022 141.87368774 C64.337443 141.88566438 58.98272375 141.88945383 53.62792969 141.88818359 C47.44927771 141.88698245 41.2709752 141.90808238 35.09241164 141.93967092 C29.13635972 141.9690306 23.180414 141.9761582 17.22428513 141.97496414 C14.69574938 141.97732339 12.16721102 141.98616505 9.63872147 142.00162888 C6.10081286 142.02124095 2.56380221 142.01546874 -0.97412109 142.00341797 C-2.01643387 142.01465698 -3.05874664 142.025896 -4.13264465 142.03747559 C-10.39431164 141.98332337 -14.13720927 141.2117207 -19.24609375 137.51757812 C-23.2137128 133.22826024 -25.48492925 129.61639382 -25.52697754 123.73127747 C-25.53839783 122.77115753 -25.54981812 121.8110376 -25.56158447 120.82182312 C-25.56382019 119.7750087 -25.56605591 118.72819427 -25.56835938 117.6496582 C-25.58325409 115.98797607 -25.58325409 115.98797607 -25.59844971 114.29272461 C-25.62768268 110.62416098 -25.64129609 106.9557704 -25.65234375 103.28710938 C-25.66384883 100.73605851 -25.67536427 98.18500769 -25.68688965 95.63395691 C-25.70522148 90.96563424 -25.71782233 86.2973634 -25.72388315 81.62901384 C-25.73283252 74.77470477 -25.76787545 67.92119581 -25.82588434 61.06712991 C-25.8744809 55.1169731 -25.88977928 49.16701354 -25.89323425 43.21665001 C-25.89927795 40.69252865 -25.9153036 38.16841028 -25.94160461 35.64441872 C-25.97583499 32.10649215 -25.97194044 28.5704971 -25.95898438 25.0324707 C-25.97741394 23.99577744 -25.99584351 22.95908417 -26.01483154 21.89097595 C-25.93246039 14.6863302 -24.313917 9.76716414 -19.24609375 4.51757812 C-13.4701942 -0.10275008 -7.11748343 -0.05624312 0 0 Z " fill="#03A4D3" transform="translate(466.24609375,212.482421875)"/>
<path d="M0 0 C1.75691162 -0.01029488 1.75691162 -0.01029488 3.54931641 -0.02079773 C7.42175411 -0.03910166 11.29378807 -0.03522292 15.16625977 -0.02954102 C17.17736907 -0.03201665 19.18846843 -0.03636355 21.19957405 -0.04089409 C27.5212775 -0.05493145 33.84284578 -0.05338479 40.16455078 -0.04199219 C46.67837402 -0.03051249 53.19178545 -0.0445855 59.70555443 -0.07138866 C65.30573209 -0.09356661 70.9057807 -0.10017834 76.50599915 -0.09431225 C79.84745966 -0.09094626 83.18844538 -0.09504638 86.52990532 -0.11056328 C90.25722805 -0.12543293 93.98364325 -0.11482424 97.7109375 -0.09765625 C98.81294998 -0.10732422 99.91496246 -0.11699219 101.05036926 -0.12695312 C107.16803527 -0.06792073 110.76910035 0.30871198 115.42016602 4.40405273 C121.38877898 10.87005011 121.71837416 16.4822424 121.71069336 24.92651367 C121.71741058 25.98567993 121.72412781 27.04484619 121.73104858 28.1361084 C121.75004278 31.63692928 121.75395374 35.13755853 121.75610352 38.63842773 C121.76253116 41.07594888 121.7692595 43.51346925 121.77627563 45.95098877 C121.78825248 51.06198922 121.7919561 56.17292206 121.79077148 61.28393555 C121.79056844 67.82189453 121.81785416 74.35941813 121.8523159 80.89727402 C121.87459403 85.93314592 121.87860871 90.96891327 121.87755203 96.00482941 C121.87990723 98.41448719 121.88872614 100.82414788 121.90421677 103.23375702 C121.92389136 106.61081577 121.91803175 109.98693869 121.90600586 113.36401367 C121.91724487 114.3523822 121.92848389 115.34075073 121.94006348 116.35906982 C121.87280796 123.82063781 120.44094045 130.30163575 115.10766602 135.77905273 C107.93171376 140.11800061 102.56823531 140.84437196 94.27172852 140.80810547 C93.17004333 140.81496872 92.06835815 140.82183197 90.93328857 140.8289032 C87.30378206 140.84715462 83.67470842 140.84333626 80.04516602 140.83764648 C77.51603047 140.84220866 74.98689617 140.84751434 72.45776367 140.85353088 C67.16197077 140.86245847 61.86633475 140.86027708 56.57055664 140.85009766 C50.46114389 140.83861332 44.35216997 140.85270328 38.24281502 140.87949413 C32.34867823 140.90436693 26.45467721 140.90682188 20.56048584 140.90037727 C18.05986806 140.900224 15.55924185 140.90627308 13.05865479 140.91866875 C9.56163971 140.93356339 6.06558864 140.92291195 2.56860352 140.90576172 C1.0238736 140.92026367 1.0238736 140.92026367 -0.55206299 140.93505859 C-6.78045624 140.87117042 -10.49158898 140.06517966 -15.57983398 136.40405273 C-19.80551346 131.94995815 -21.81967659 127.63712249 -21.85398865 121.49076843 C-21.86396378 120.52782867 -21.8739389 119.56488892 -21.88421631 118.57276917 C-21.88488098 117.52797897 -21.88554565 116.48318878 -21.88623047 115.40673828 C-21.89455399 114.29719788 -21.9028775 113.18765747 -21.91145325 112.04449463 C-21.93554852 108.37655121 -21.94432491 104.70878565 -21.95092773 101.04077148 C-21.95989438 98.48875373 -21.96901623 95.93673652 -21.97828674 93.38471985 C-21.99477801 88.03413282 -22.00251007 82.68361234 -22.00537109 77.33300781 C-22.00900404 71.16225748 -22.03888659 64.99200522 -22.08077568 58.82140702 C-22.11974566 52.87070287 -22.13096551 46.92014731 -22.13209724 40.96930885 C-22.13629966 38.44437776 -22.14873466 35.91944626 -22.16961479 33.39459801 C-22.19652509 29.85914344 -22.19170329 26.32505611 -22.17919922 22.78955078 C-22.19403351 21.75083328 -22.2088678 20.71211578 -22.22415161 19.641922 C-22.1572219 12.98298479 -21.01595418 8.48230245 -16.57983398 3.40405273 C-12.02365614 -0.90342901 -5.9074805 -0.02408742 0 0 Z " fill="#03A4D2" transform="translate(462.579833984375,375.595947265625)"/>
<path d="M0 0 C1.15030701 -0.00700928 2.30061401 -0.01401855 3.48577881 -0.02124023 C7.28316484 -0.03882578 11.07980382 -0.02719379 14.87719727 -0.01367188 C17.51986331 -0.01636679 20.16252839 -0.0202492 22.80519104 -0.02526855 C28.34237739 -0.03253675 33.87935004 -0.02298031 39.41650391 -0.00390625 C45.80594702 0.01785044 52.1948793 0.01081703 58.58431 -0.01121187 C64.74492023 -0.03159686 70.90530515 -0.0293806 77.06593513 -0.01768494 C79.68098078 -0.01501887 82.29603948 -0.01828315 84.91106987 -0.02760315 C88.56866703 -0.03777733 92.22528792 -0.02225285 95.8828125 0 C97.50002953 -0.01214539 97.50002953 -0.01214539 99.1499176 -0.02453613 C105.48421433 0.04675088 109.34437259 0.76228041 114.50610352 4.51757812 C116.24829102 6.58789062 116.24829102 6.58789062 117.38110352 8.64257812 C117.77040039 9.32578125 118.15969727 10.00898437 118.56079102 10.71289062 C120.13118366 13.71091295 120.63378629 15.44706396 120.64654541 18.84231567 C120.65225555 19.75064651 120.6579657 20.65897736 120.66384888 21.59483337 C120.66552567 23.09404076 120.66552567 23.09404076 120.66723633 24.62353516 C120.67220123 25.67411606 120.67716614 26.72469696 120.68228149 27.80711365 C120.69693289 31.29654589 120.70371128 34.78593262 120.70922852 38.27539062 C120.71497902 40.69717409 120.72073676 43.11895754 120.72650146 45.54074097 C120.73702095 50.62677218 120.74285692 55.71278755 120.74633789 60.79882812 C120.75181421 67.30885925 120.77582001 73.81868034 120.80430984 80.32864571 C120.82295895 85.33530278 120.82814312 90.3419096 120.82967377 95.34859848 C120.8326974 97.74791483 120.84071611 100.14723035 120.85385895 102.5465126 C120.87096091 105.90958717 120.86902839 109.27215319 120.86254883 112.63525391 C120.87176361 113.62258011 120.88097839 114.60990631 120.89047241 115.62715149 C120.84688174 122.86923263 119.69011469 128.88289467 115.25610352 134.83007812 C108.99691647 140.94701092 102.61292832 140.96103067 94.28173828 140.9375 C92.61698959 140.95020432 92.61698959 140.95020432 90.91860962 140.96316528 C87.26145876 140.98650399 83.60472936 140.98755819 79.94750977 140.98632812 C77.39834933 140.99343113 74.84919049 141.00113033 72.30003357 141.00939941 C66.96136404 141.02283678 61.62284928 141.02459789 56.28417969 141.01855469 C50.1281331 141.0119141 43.9726857 141.0347873 37.8167606 141.07186842 C31.87564219 141.10634637 25.93470748 141.11289592 19.99348259 141.10877991 C17.47414299 141.11047113 14.95479548 141.12011372 12.43551826 141.13792419 C8.90981894 141.16010891 5.38555854 141.15041271 1.85986328 141.1328125 C0.82428787 141.14607574 -0.21128754 141.15933899 -1.27824402 141.17300415 C-7.93810523 141.09592787 -12.34069835 139.8261817 -17.49389648 135.51757812 C-21.30036343 131.41830603 -22.61080071 128.38787451 -22.64779663 122.84480286 C-22.66069733 121.40451721 -22.66069733 121.40451721 -22.67385864 119.93513489 C-22.67811859 118.88315414 -22.68237854 117.8311734 -22.68676758 116.74731445 C-22.69494507 115.6380661 -22.70312256 114.52881775 -22.71154785 113.38595581 C-22.73640349 109.70717917 -22.75291889 106.02844114 -22.76733398 102.34960938 C-22.77265766 101.09360113 -22.77798134 99.83759289 -22.78346634 98.54352379 C-22.8046964 93.26344668 -22.82382563 87.98337536 -22.83508873 82.7032671 C-22.85131105 75.14915125 -22.88445004 67.59555109 -22.94148958 60.04162961 C-22.98495249 54.08133905 -23.00084329 48.12116271 -23.00722122 42.16071129 C-23.01393597 39.63018817 -23.02916364 37.09967262 -23.05311203 34.56925392 C-23.08474872 31.02404329 -23.0848016 27.48012934 -23.07739258 23.93481445 C-23.09379791 22.89295486 -23.11020325 21.85109528 -23.12710571 20.77766418 C-23.07009493 14.10036268 -21.96114557 9.5937971 -17.49389648 4.51757812 C-12.24535234 -0.47506673 -6.85644558 -0.05139577 0 0 Z " fill="#03A4D3" transform="translate(463.493896484375,536.482421875)"/>
<path d="M0 0 C0.85207031 -0.04769531 1.70414063 -0.09539063 2.58203125 -0.14453125 C3.29875 -0.19351563 4.01546875 -0.2425 4.75390625 -0.29296875 C8.99592318 0.7755092 11.45545388 4.62209736 13.66210938 8.18701172 C14.22349609 9.27127441 14.78488281 10.35553711 15.36328125 11.47265625 C15.67611557 12.06921021 15.98894989 12.66576416 16.31126404 13.28039551 C16.97956448 14.55652949 17.64385173 15.83477201 18.30441284 17.1149292 C20.05580029 20.50743946 21.83814791 23.88365171 23.6171875 27.26171875 C24.15189415 28.27968033 24.15189415 28.27968033 24.69740295 29.31820679 C29.30669202 38.07111109 34.21654048 46.65181049 39.12841797 55.23730469 C42.72318601 61.55313388 46.27387153 67.89396571 49.83203125 74.23046875 C49.84083061 72.9250135 49.84083061 72.9250135 49.84980774 71.59318542 C49.90767748 63.39704526 49.97972101 55.20117928 50.06774616 47.00530529 C50.11250094 42.79156081 50.15174555 38.57791416 50.1784668 34.36401367 C50.2044492 30.2984203 50.24481498 26.23320237 50.29521751 22.16784096 C50.31192067 20.6157326 50.32341344 19.06355925 50.32964516 17.51137352 C50.33924923 15.33945602 50.36726155 13.16850647 50.3996582 10.99682617 C50.41076126 9.75994553 50.42186432 8.52306488 50.43330383 7.248703 C50.83203125 4.23046875 50.83203125 4.23046875 52.20304871 2.33282471 C55.97144362 -0.21730243 61.45328177 0.76489984 65.83203125 0.79296875 C66.93804688 0.77298828 68.0440625 0.75300781 69.18359375 0.73242188 C70.24320313 0.73306641 71.3028125 0.73371094 72.39453125 0.734375 C73.85052734 0.73159546 73.85052734 0.73159546 75.3359375 0.72875977 C77.83203125 1.23046875 77.83203125 1.23046875 79.46380711 2.94396973 C81.07870268 5.64269213 81.211181 7.1889939 81.2197113 10.31616211 C81.22961594 11.34240692 81.23952057 12.36865173 81.24972534 13.42599487 C81.24522369 14.54611969 81.24072205 15.66624451 81.23608398 16.8203125 C81.24294724 18.00440704 81.24981049 19.18850159 81.25688171 20.40847778 C81.27204538 23.65232092 81.27364431 26.89580387 81.26793933 30.13966751 C81.26484848 32.84851879 81.27093865 35.55731804 81.27697808 38.26616192 C81.29102262 44.65632647 81.28946227 51.04635733 81.27807617 57.43652344 C81.26659058 64.02818476 81.28067777 70.61943943 81.30747265 77.21104717 C81.32962374 82.87231912 81.33626853 88.53346337 81.33039623 94.19477558 C81.3270245 97.57525179 81.32945583 100.95546723 81.34664726 104.33590698 C81.36148015 108.10445661 81.35093587 111.87210413 81.33374023 115.640625 C81.3434082 116.76074982 81.35307617 117.88087463 81.36303711 119.03494263 C81.3482859 120.57430984 81.3482859 120.57430984 81.33323669 122.14477539 C81.33292277 123.48095665 81.33292277 123.48095665 81.3326025 124.84413147 C80.66617704 128.02113357 79.3329772 129.22682574 76.83203125 131.23046875 C72.55943136 132.05582732 68.2379457 131.83316366 63.89453125 131.79296875 C62.71439453 131.81681641 61.53425781 131.84066406 60.31835938 131.86523438 C59.17947266 131.86330078 58.04058594 131.86136719 56.8671875 131.859375 C55.82957275 131.8601001 54.79195801 131.8608252 53.72290039 131.86157227 C49.75267047 130.99483429 48.38639402 129.35258495 45.83203125 126.23046875 C44.43912158 123.95350088 43.18298088 121.74336434 41.9765625 119.375 C41.63332947 118.72038284 41.29009644 118.06576569 40.9364624 117.39131165 C40.20727142 115.99827354 39.48221228 114.60306584 38.76101685 113.20587158 C37.25470305 110.28777718 35.72838933 107.38031702 34.20298767 104.47216797 C33.44810845 103.03260021 32.69424494 101.59249936 31.94142151 100.15185547 C29.16612276 94.84460521 26.32340763 89.57977107 23.39453125 84.35546875 C23.01675537 83.6797583 22.63897949 83.00404785 22.24975586 82.30786133 C20.65582674 79.46356107 19.05396044 76.62377092 17.45166016 73.78417969 C16.033448 71.26813608 14.62019132 68.74935234 13.20703125 66.23046875 C12.76818604 65.45719238 12.32934082 64.68391602 11.87719727 63.88720703 C8.83203125 58.45595394 8.83203125 58.45595394 8.83203125 56.23046875 C8.17203125 56.23046875 7.51203125 56.23046875 6.83203125 56.23046875 C6.8409137 57.1258284 6.84979614 58.02118805 6.85894775 58.94367981 C6.93904301 67.37504314 6.9999698 75.806279 7.03927994 84.23793507 C7.06016908 88.57293213 7.08851044 92.90761527 7.13378906 97.24243164 C7.17720025 101.42456338 7.20115836 105.60639289 7.21154022 109.78873253 C7.21894017 111.38559415 7.23339047 112.98243893 7.25495148 114.57917213 C7.2839241 116.81331963 7.28799005 119.04621294 7.28613281 121.28051758 C7.29501526 122.55292801 7.30389771 123.82533844 7.31304932 125.13630676 C6.83203125 128.23046875 6.83203125 128.23046875 4.95428467 130.14057922 C2.39536772 131.4547186 0.64052405 131.61780705 -2.23046875 131.62890625 C-3.19210937 131.63277344 -4.15375 131.63664063 -5.14453125 131.640625 C-6.64113281 131.62322266 -6.64113281 131.62322266 -8.16796875 131.60546875 C-9.16570313 131.61707031 -10.1634375 131.62867188 -11.19140625 131.640625 C-12.15304687 131.63675781 -13.1146875 131.63289062 -14.10546875 131.62890625 C-14.98074219 131.62552246 -15.85601563 131.62213867 -16.7578125 131.61865234 C-19.74021234 131.13830229 -20.98622568 130.30844763 -23.16796875 128.23046875 C-23.66854 125.93315125 -23.66854 125.93315125 -23.66917419 123.18237305 C-23.67900833 122.13922943 -23.68884247 121.09608582 -23.69897461 120.02133179 C-23.68930664 118.87733917 -23.67963867 117.73334656 -23.66967773 116.5546875 C-23.67508072 115.34962555 -23.6804837 114.1445636 -23.68605042 112.90298462 C-23.69642545 109.59691923 -23.68882329 106.29185219 -23.6723392 102.98587418 C-23.65849894 99.52793204 -23.6649476 96.07002037 -23.66847229 92.61206055 C-23.67117524 86.80476501 -23.65769173 80.99767607 -23.63452148 75.19042969 C-23.60791103 68.47441899 -23.60616422 61.75875374 -23.61790985 55.0427084 C-23.62868551 48.58471185 -23.62250229 42.12684038 -23.60835457 35.66885376 C-23.60259287 32.91929166 -23.60267885 30.16982103 -23.60741997 27.42025757 C-23.6130741 23.58212185 -23.59388071 19.74433244 -23.57202148 15.90625 C-23.57652313 14.76225739 -23.58102478 13.61826477 -23.58566284 12.43960571 C-23.57575821 11.3964621 -23.56585358 10.35331848 -23.5556488 9.27856445 C-23.55321891 8.37080765 -23.55078901 7.46305084 -23.54828548 6.52778625 C-23.16796875 4.23046875 -23.16796875 4.23046875 -21.87249851 2.44694519 C-18.97047284 0.37584855 -15.5540566 0.6450112 -12.10546875 0.54296875 C-10.96126465 0.49825439 -10.96126465 0.49825439 -9.79394531 0.45263672 C-8.27609697 0.39628893 -6.75800908 0.34601999 -5.23974609 0.30224609 C-3.49130972 0.24167099 -1.74487408 0.12693905 0 0 Z " fill="#F6464B" transform="translate(733.16796875,702.76953125)"/>
<path d="M0 0 C0.71495132 -0.00857025 1.42990265 -0.0171405 2.16651917 -0.02597046 C3.67517877 -0.03743033 5.18394886 -0.038477 6.69262695 -0.02978516 C8.99427855 -0.02346394 11.29078135 -0.07038131 13.59179688 -0.12109375 C15.06119146 -0.12564051 16.53059981 -0.12704636 18 -0.125 C18.68348007 -0.14341949 19.36696014 -0.16183899 20.07115173 -0.18081665 C23.78530305 -0.10934678 25.43481334 0.48941915 28.27539062 2.91015625 C31.58025492 7.53967059 33.07682831 13.02779309 34.7890625 18.390625 C35.17144577 19.55050934 35.55382904 20.71039368 35.94779968 21.90542603 C36.97520386 25.02965542 37.99070727 28.1574396 39.0009613 31.2872467 C40.05277316 34.53561325 41.12018213 37.77884109 42.18652344 41.02246094 C43.87933229 46.17652257 45.56463881 51.33295601 47.24462891 56.49121094 C49.98420327 64.89492135 52.77674732 73.28044405 55.58407593 81.66171265 C56.30722769 83.82411632 57.02695199 85.98762789 57.74536133 88.15161133 C59.74701124 94.17898901 61.76427734 100.19941761 63.84765625 106.19921875 C64.35474121 107.67310059 64.35474121 107.67310059 64.87207031 109.17675781 C65.46903624 110.90715647 66.07411919 112.63479489 66.69042969 114.35839844 C68.24599569 118.88638354 69.12106908 122.74826274 68.56640625 127.6015625 C67.41113281 129.27319336 67.41113281 129.27319336 65.56640625 130.6015625 C62.88671875 130.98974609 62.88671875 130.98974609 59.69140625 131 C58.5415625 131.00386719 57.39171875 131.00773438 56.20703125 131.01171875 C55.005625 131.00011719 53.80421875 130.98851562 52.56640625 130.9765625 C51.365 130.98816406 50.16359375 130.99976563 48.92578125 131.01171875 C47.20101562 131.00591797 47.20101562 131.00591797 45.44140625 131 C44.38695312 130.99661621 43.3325 130.99323242 42.24609375 130.98974609 C39.56640625 130.6015625 39.56640625 130.6015625 37.78369141 129.31152344 C35.69206947 126.37335255 34.91776167 122.90586025 33.94140625 119.4765625 C32.90026806 114.66411434 32.90026806 114.66411434 30.56640625 110.6015625 C29.18589767 110.47958442 27.79942978 110.42387351 26.41381836 110.39624023 C25.5329808 110.37629501 24.65214325 110.35634979 23.74461365 110.33580017 C22.78732864 110.31908768 21.83004364 110.30237518 20.84375 110.28515625 C19.86853897 110.26437515 18.89332794 110.24359406 17.88856506 110.22218323 C14.76041995 110.15657838 11.63218803 110.09775222 8.50390625 110.0390625 C6.38866275 109.99588767 4.27342816 109.95227373 2.15820312 109.90820312 C-3.03896962 109.80088595 -8.23622952 109.6991403 -13.43359375 109.6015625 C-13.63202881 110.34269287 -13.83046387 111.08382324 -14.03491211 111.84741211 C-14.29925049 112.82718018 -14.56358887 113.80694824 -14.8359375 114.81640625 C-15.09624756 115.78441162 -15.35655762 116.75241699 -15.62475586 117.74975586 C-18.41315876 127.58112751 -18.41315876 127.58112751 -21.43359375 130.6015625 C-24.10742188 130.86035156 -24.10742188 130.86035156 -27.46484375 130.8671875 C-28.66753906 130.86976563 -29.87023437 130.87234375 -31.109375 130.875 C-33.00236328 130.86339844 -33.00236328 130.86339844 -34.93359375 130.8515625 C-36.19558594 130.85929688 -37.45757812 130.86703125 -38.7578125 130.875 C-39.96050781 130.87242187 -41.16320312 130.86984375 -42.40234375 130.8671875 C-43.51029297 130.86493164 -44.61824219 130.86267578 -45.75976562 130.86035156 C-48.43359375 130.6015625 -48.43359375 130.6015625 -50.43359375 128.6015625 C-50.82327955 123.58674087 -50.07636588 119.70023166 -48.44140625 114.9765625 C-48.22413376 114.33733856 -48.00686127 113.69811462 -47.78300476 113.03952026 C-47.30461977 111.6354379 -46.82146117 110.23297507 -46.33413696 108.83197021 C-44.95628031 104.86935143 -43.6143161 100.8944936 -42.265625 96.921875 C-41.96768539 96.047659 -41.66974579 95.17344299 -41.36277771 94.2727356 C-38.83397239 86.83545018 -36.38002021 79.3748146 -33.9453125 71.90625 C-33.55786865 70.71791565 -33.1704248 69.5295813 -32.77124023 68.30523682 C-31.2198411 63.54342374 -29.66996419 58.78111928 -28.12237549 54.01806641 C-25.9513495 47.33975864 -23.76721432 40.66603655 -21.55914307 33.99987793 C-20.78275315 31.65576222 -20.00911634 29.31073347 -19.23773193 26.96496582 C-18.04889407 23.36284972 -16.84316364 19.76681189 -15.6328125 16.171875 C-15.2711348 15.06907196 -14.90945709 13.96626892 -14.53681946 12.83004761 C-14.18910995 11.80863678 -13.84140045 10.78722595 -13.4831543 9.73486328 C-13.18314011 8.83760529 -12.88312592 7.94034729 -12.57402039 7.01589966 C-9.7477634 1.03257987 -6.26603162 -0.01666192 0 0 Z " fill="#F6464B" transform="translate(382.43359375,703.3984375)"/>
<path d="M0 0 C0.71636627 -0.0099852 1.43273254 -0.0199704 2.17080688 -0.03025818 C3.68542716 -0.04543385 5.20014753 -0.05248414 6.71484375 -0.05200195 C9.02513255 -0.05855424 11.33109898 -0.11299694 13.640625 -0.16992188 C15.11456868 -0.17872671 16.58853272 -0.18467908 18.0625 -0.1875 C18.74911713 -0.20905655 19.43573425 -0.2306131 20.14315796 -0.25282288 C24.03708976 -0.19758275 25.53651829 0.38803539 28.44360352 3.02905273 C31.03488135 6.65920729 32.43347974 10.57665992 33.79296875 14.79296875 C34.06387329 15.59613022 34.33477783 16.39929169 34.6138916 17.22679138 C35.49754754 19.85675649 36.36212389 22.49256875 37.2265625 25.12890625 C37.84509275 26.98273463 38.46482016 28.83616397 39.08569336 30.68920898 C40.35099587 34.47284454 41.60857376 38.25890952 42.859375 42.04736328 C44.48660101 46.97451809 46.13359614 51.89477327 47.7890625 56.8125 C49.99433216 63.36995011 52.17833708 69.93414967 54.34698486 76.50379944 C56.01699575 81.55991717 57.70361569 86.61026548 59.39686584 91.65864563 C60.63254191 95.35117732 61.85779249 99.04711474 63.08078003 102.74386597 C63.67342659 104.52854922 64.27014744 106.31188515 64.87112427 108.09378052 C65.70520817 110.56938792 66.52419693 113.04951754 67.33984375 115.53125 C67.59123108 116.26600555 67.84261841 117.00076111 68.10162354 117.75778198 C69.3726586 121.68194569 70.09307861 124.55837238 68.6640625 128.50390625 C64.95735622 132.21061253 58.79444245 130.8735529 53.7890625 130.87890625 C52.59152344 130.90339844 51.39398437 130.92789063 50.16015625 130.953125 C49.00902344 130.95699219 47.85789062 130.96085938 46.671875 130.96484375 C45.61629395 130.97306152 44.56071289 130.9812793 43.47314453 130.98974609 C40.6640625 130.50390625 40.6640625 130.50390625 36.6640625 126.50390625 C35.0140625 121.22390625 33.3640625 115.94390625 31.6640625 110.50390625 C17.1440625 110.50390625 2.6240625 110.50390625 -12.3359375 110.50390625 C-14.22318346 115.53656215 -15.9695074 120.4025193 -17.4921875 125.5234375 C-18.49653341 127.88086054 -19.30130595 128.93276114 -21.3359375 130.50390625 C-24.015625 130.89208984 -24.015625 130.89208984 -27.2109375 130.90234375 C-28.36078125 130.90621094 -29.510625 130.91007813 -30.6953125 130.9140625 C-31.89671875 130.90246094 -33.098125 130.89085937 -34.3359375 130.87890625 C-35.53734375 130.89050781 -36.73875 130.90210938 -37.9765625 130.9140625 C-39.70132813 130.90826172 -39.70132813 130.90826172 -41.4609375 130.90234375 C-42.51539063 130.89895996 -43.56984375 130.89557617 -44.65625 130.89208984 C-47.3359375 130.50390625 -47.3359375 130.50390625 -49.265625 129.47900391 C-51.29286562 125.73804208 -49.75516543 121.06267944 -48.69177818 117.10879326 C-47.85684187 114.399993 -46.97403333 111.71146475 -46.07299805 109.02392578 C-45.73790222 108.00494202 -45.4028064 106.98595825 -45.05755615 105.93609619 C-43.95309995 102.58388482 -42.83808156 99.23529462 -41.72265625 95.88671875 C-40.94840274 93.54574677 -40.17471451 91.20458775 -39.40156555 88.86325073 C-37.7811252 83.96118815 -36.15579269 79.06078543 -34.52661133 74.16162109 C-32.44483271 67.90104824 -30.37224047 61.63748461 -28.30295086 55.37277412 C-26.70556871 50.5384606 -25.10480298 45.70527319 -23.50287819 40.87246323 C-22.73794097 38.56435635 -21.97368856 36.2560224 -21.21014977 33.94745255 C-20.13897334 30.71145847 -19.06362147 27.47688191 -17.98706055 24.24267578 C-17.67573685 23.30001862 -17.36441315 22.35736145 -17.0436554 21.38613892 C-15.54517886 16.89854414 -13.98138144 12.44102803 -12.29524231 8.02023315 C-11.99174268 7.22381346 -11.68824305 6.42739376 -11.37554646 5.60684013 C-8.73436756 0.26423071 -5.60381626 0.02708717 0 0 Z " fill="#F5464B" transform="translate(625.3359375,703.49609375)"/>
<path d="M0 0 C6.69906519 5.22404166 10.33851547 12.01554642 13 20 C13.09267588 21.70632648 13.12998202 23.41616587 13.125 25.125 C13.12886719 26.45917969 13.12886719 26.45917969 13.1328125 27.8203125 C13 30 13 30 12 31 C7.76128682 31.24221218 3.51684019 31.22851631 -0.72802734 31.24023438 C-2.85944804 31.24992926 -4.98990008 31.28093407 -7.12109375 31.3125 C-8.47395259 31.319031 -9.82681835 31.32428109 -11.1796875 31.328125 C-13.03182861 31.34214355 -13.03182861 31.34214355 -14.92138672 31.35644531 C-18 31 -18 31 -19.80517578 29.66699219 C-20.8966523 28.14418841 -21.92104239 26.57386984 -22.9375 25 C-25.5768235 21.16098401 -27.60726184 19.46424605 -32 18 C-39.72978914 17.31247111 -46.20422287 17.01459323 -52.64453125 21.7109375 C-54.70922237 23.6744766 -54.99606765 24.97050736 -55.375 27.8125 C-54.86669551 32.1330882 -53.27422418 33.20546727 -50 36 C-46.78827633 37.64348399 -46.78827633 37.64348399 -43.125 38.875 C-42.44373047 39.1220166 -41.76246094 39.3690332 -41.06054688 39.62353516 C-35.91793722 41.44572863 -30.70502751 42.98506382 -25.46777344 44.5090332 C6.72338522 53.9020934 6.72338522 53.9020934 14 67 C18.70808919 78.6293827 17.55555024 88.46211106 13 100 C7.3027816 112.27759224 -2.13961849 119.27229479 -14.5625 123.96875 C-28.14771506 128.13694099 -44.59143667 127.36295469 -58 123 C-58.88816406 122.7215625 -59.77632812 122.443125 -60.69140625 122.15625 C-71.23423478 118.42199623 -80.97104083 110.39418808 -86.3515625 100.51953125 C-88.57694681 95.35631945 -90.36776996 89.68817537 -90 84 C-86.34062111 80.34062111 -80.17866116 81.5877209 -75.1965332 81.57446289 C-73.0732097 81.56256004 -70.95278819 81.51339028 -68.83007812 81.46289062 C-67.48178503 81.45342685 -66.13347407 81.44619159 -64.78515625 81.44140625 C-63.55676025 81.42795166 -62.32836426 81.41449707 -61.06274414 81.40063477 C-58 82 -58 82 -56.20092773 84.34350586 C-55.80462158 85.22014893 -55.40831543 86.09679199 -55 87 C-50.92950455 93.23294615 -46.18998452 95.30142648 -39 97 C-33.10727967 97.68420555 -27.51440151 97.31604864 -22 95 C-19.29348303 92.43593129 -18.17604084 90.52812251 -17 87 C-17 83.00160588 -18.29651781 81.87307228 -21 79 C-30.74285856 73.36930244 -42.88681511 70.66975025 -53.59936523 67.30493164 C-74.52709373 60.70817081 -74.52709373 60.70817081 -81.875 52.0625 C-82.40867188 51.45535156 -82.94234375 50.84820313 -83.4921875 50.22265625 C-87.52498747 44.27793298 -88.53225841 39.23021346 -88.4375 32.1875 C-88.42920166 31.39287354 -88.42090332 30.59824707 -88.41235352 29.77954102 C-88.05433607 17.31263446 -82.14184374 8.68631896 -73.25 0.25 C-53.83023472 -15.97077294 -19.82850417 -14.00515493 0 0 Z " fill="#F6474B" transform="translate(308,711)"/>
<path d="M0 0 C1.30775139 -0.01051392 1.30775139 -0.01051392 2.641922 -0.02124023 C5.52861227 -0.03886888 8.41432486 -0.0271793 11.30102539 -0.01367188 C13.30497933 -0.01636564 15.30893201 -0.02024708 17.31288147 -0.02526855 C21.5153547 -0.03117041 25.71748811 -0.02257939 29.91992188 -0.00390625 C35.30837823 0.01886889 40.69603708 0.00577351 46.08446407 -0.01819611 C50.22373974 -0.03264801 54.36282626 -0.0280506 58.50210762 -0.01768494 C60.48884742 -0.01501521 62.47560435 -0.01829602 64.46232414 -0.02760315 C67.23966842 -0.03775703 70.01572075 -0.02228343 72.79296875 0 C73.61544098 -0.00809692 74.43791321 -0.01619385 75.28530884 -0.02453613 C78.92047332 0.02952518 81.0238944 0.18554956 83.96266174 2.41693115 C87.85772028 7.87708082 86.74006684 16.43827846 86.0456543 22.8203125 C84.55887136 29.68162323 79.76135859 34.70701906 75.11157227 39.73144531 C73.07486478 41.93566897 71.16125221 44.22803128 69.2421875 46.53442383 C67.89895176 48.14225479 66.53554574 49.73100158 65.16821289 51.31835938 C61.89905367 55.14512258 58.81370323 59.10889045 55.72436523 63.08105469 C51.76001431 68.16828878 47.69696857 73.17044976 43.57885742 78.1340332 C37.61685419 85.39539726 32.07027594 92.98300971 26.46118164 100.51757812 C27.12881531 100.51091629 27.79644897 100.50425446 28.48431396 100.49739075 C35.42707508 100.43106921 42.36974635 100.38579061 49.31274414 100.3527832 C51.90457819 100.33768798 54.49638667 100.31720989 57.08813477 100.29125977 C60.81150623 100.25490985 64.53454024 100.23785892 68.25805664 100.22460938 C69.99886505 100.20138359 69.99886505 100.20138359 71.77484131 100.1776886 C72.85565979 100.17746201 73.93647827 100.17723541 75.05004883 100.17700195 C76.47568146 100.1670092 76.47568146 100.1670092 77.93011475 100.15681458 C80.92937906 100.58431226 82.29502383 101.42741181 84.46118164 103.51757812 C84.97875977 106.01367188 84.97875977 106.01367188 84.99243164 108.95507812 C85.00016602 110.54449219 85.00016602 110.54449219 85.00805664 112.16601562 C84.99258789 113.27203125 84.97711914 114.37804687 84.96118164 115.51757812 C84.98438477 117.17660156 84.98438477 117.17660156 85.00805664 118.86914062 C85.00290039 119.92875 84.99774414 120.98835937 84.99243164 122.08007812 C84.98791992 123.05074219 84.9834082 124.02140625 84.97875977 125.02148438 C84.46118164 127.51757812 84.46118164 127.51757812 82.98681641 129.14833069 C79.22104272 131.18990694 75.75430029 130.94401229 71.53344727 130.92163086 C70.63220627 130.92849411 69.73096527 130.93535736 68.80241394 130.94242859 C65.82392618 130.96072725 62.84596354 130.95685506 59.86743164 130.95117188 C57.79764636 130.95573186 55.7278626 130.96103688 53.65808105 130.96705627 C49.32041268 130.97599316 44.98292837 130.97355723 40.64526367 130.96362305 C35.08311704 130.95212659 29.52160462 130.97235252 23.95954132 131.00154018 C19.68560747 131.01987345 15.41182645 131.01961556 11.13786316 131.01390266 C9.08692026 131.01374913 7.03596722 131.01981986 4.98506165 131.03219414 C2.11927309 131.04704975 -0.74533279 131.03646743 -3.61108398 131.01928711 C-4.88451408 131.03378906 -4.88451408 131.03378906 -6.18367004 131.04858398 C-11.9287584 130.97635757 -11.9287584 130.97635757 -15.05552673 128.62495422 C-19.0477473 122.95303506 -17.90402549 113.91060616 -17.17504883 107.31298828 C-15.55989635 100.21648183 -10.21527066 95.29902786 -5.23999023 90.28759766 C-2.72000749 87.66562939 -0.57618396 84.81024515 1.58618164 81.89257812 C6.35610227 75.64313445 11.20414684 69.45855434 16.07006836 63.28369141 C17.45298124 61.52798909 18.83436135 59.77109397 20.21508789 58.01367188 C20.89595459 57.14705933 20.89595459 57.14705933 21.59057617 56.26293945 C22.49948036 55.10551942 23.40801312 53.94780761 24.31616211 52.78979492 C26.70921479 49.73983424 29.11149415 46.69776698 31.52758789 43.66601562 C32.0290332 43.034375 32.53047852 42.40273438 33.04711914 41.75195312 C34.00644927 40.54390778 34.96853893 39.33804687 35.93383789 38.13476562 C38.13064342 35.36260626 39.94707626 32.7071104 41.46118164 29.51757812 C40.85618835 29.52646057 40.25119507 29.53534302 39.62786865 29.54449463 C33.33395837 29.63295405 27.04022451 29.69330654 20.74584961 29.73730469 C18.3964928 29.75742627 16.0471861 29.78472663 13.69799805 29.81933594 C10.32205849 29.86782852 6.94678078 29.8905417 3.57055664 29.90820312 C2.5193866 29.92884827 1.46821655 29.94949341 0.38519287 29.97076416 C-6.83432758 29.97298824 -6.83432758 29.97298824 -10.20214844 27.79589844 C-11.732778 25.18697879 -12.04160912 23.6857378 -12.03491211 20.67382812 C-12.03587891 19.29904297 -12.03587891 19.29904297 -12.03686523 17.89648438 C-12.01688477 16.94644531 -11.9969043 15.99640625 -11.97631836 15.01757812 C-11.9834082 14.06753906 -11.99049805 13.1175 -11.99780273 12.13867188 C-11.93586357 5.36348043 -11.93586357 5.36348043 -10.54724121 2.4050293 C-7.44170736 -0.51345149 -4.04230099 -0.0396972 0 0 Z " fill="#F5464B" transform="translate(479.538818359375,703.482421875)"/>
<path d="M0 0 C3.18195461 3.57239283 4.37593515 7.63626308 5.734375 12.125 C5.97665833 12.90891113 6.21894165 13.69282227 6.46856689 14.50048828 C6.9767652 16.15337704 7.4808115 17.80754739 7.98095703 19.46289062 C8.74855904 21.9952462 9.53550527 24.52102623 10.32421875 27.046875 C10.81628471 28.65588944 11.3072093 30.26525347 11.796875 31.875 C12.03323669 32.6292627 12.26959839 33.38352539 12.51312256 34.16064453 C14.40655761 40.52122468 14.40655761 40.52122468 13 44 C10.02221146 44.99259618 8.03757049 45.12891582 4.9296875 45.1328125 C3.95128906 45.13410156 2.97289062 45.13539063 1.96484375 45.13671875 C0.94519531 45.13285156 -0.07445312 45.12898437 -1.125 45.125 C-2.66607422 45.13080078 -2.66607422 45.13080078 -4.23828125 45.13671875 C-5.70201172 45.13478516 -5.70201172 45.13478516 -7.1953125 45.1328125 C-8.09266113 45.13168457 -8.99000977 45.13055664 -9.91455078 45.12939453 C-12 45 -12 45 -13 44 C-12.5356324 38.45829394 -11.42209823 33.40500329 -9.78515625 28.10546875 C-9.5693541 27.39143387 -9.35355194 26.67739899 -9.13121033 25.94172668 C-8.67794991 24.44757634 -8.22149739 22.95439086 -7.76196289 21.4621582 C-7.05973831 19.17851896 -6.37002514 16.89136022 -5.68164062 14.60351562 C-5.23771348 13.14560954 -4.79307714 11.68791916 -4.34765625 10.23046875 C-4.039739 9.20858711 -4.039739 9.20858711 -3.7256012 8.1660614 C-2.76309877 5.06265653 -1.81915298 2.72872948 0 0 Z " fill="#1A1916" transform="translate(391,742)"/>
<path d="M0 0 C3.65198543 2.74905149 4.47250554 6.81136113 5.734375 10.9921875 C5.97665833 11.77514191 6.21894165 12.55809631 6.46856689 13.36477661 C6.97745657 15.01923441 7.48147669 16.67519679 7.98095703 18.33251953 C8.74651047 20.86346351 9.53426582 23.38673651 10.32421875 25.91015625 C10.81646411 27.52041824 11.30739366 29.13108317 11.796875 30.7421875 C12.15141754 31.8705452 12.15141754 31.8705452 12.51312256 33.021698 C13.81058797 37.39966667 13.9293119 39.3534405 13 44 C4.75 44 -3.5 44 -12 44 C-13.38451729 39.84644812 -11.9990301 36.79028887 -10.76171875 32.75390625 C-10.52089066 31.94638412 -10.28006256 31.138862 -10.03193665 30.30686951 C-9.52057775 28.59845162 -9.00501758 26.89128648 -8.4855957 25.18530273 C-7.6924521 22.57877422 -6.91252028 19.96857855 -6.13476562 17.35742188 C-5.6361921 15.69768354 -5.13686769 14.03817053 -4.63671875 12.37890625 C-4.40329269 11.59963272 -4.16986664 10.82035919 -3.92936707 10.01747131 C-2.86014588 6.51836197 -1.8118201 3.2025946 0 0 Z " fill="#171814" transform="translate(634,742)"/>
<path d="M0 0 C38.28 0 76.56 0 116 0 C115.67 0.99 115.34 1.98 115 3 C100.44886146 3.07004827 85.89774902 3.12276823 71.34647655 3.15543652 C64.59022069 3.17091241 57.83406953 3.19201557 51.07788086 3.22631836 C44.56159671 3.25938735 38.04538061 3.27683794 31.52901649 3.28463173 C29.03903805 3.29018814 26.54906578 3.30103796 24.05913353 3.31719017 C20.57989853 3.33886869 17.10111749 3.3419709 13.62182617 3.34057617 C12.06708084 3.35675491 12.06708084 3.35675491 10.48092651 3.3732605 C9.53441727 3.36913651 8.58790802 3.36501251 7.61271667 3.36076355 C6.78955554 3.36352893 5.96639441 3.36629431 5.11828899 3.36914349 C3 3 3 3 0 0 Z " fill="#0794BE" transform="translate(288,674)"/>
<path d="M0 0 C37.62 0 75.24 0 114 0 C114 0.99 114 1.98 114 3 C76.05 3 38.1 3 -1 3 C-0.67 2.01 -0.34 1.02 0 0 Z " fill="#078BB3" transform="translate(455,674)"/>
<path d="M0 0 C11.42192376 -0.06943818 22.84379751 -0.12277981 34.26588917 -0.15543652 C39.56934362 -0.17110823 44.87265391 -0.19237401 50.17602539 -0.22631836 C55.29181528 -0.25885805 60.4074663 -0.27684167 65.52335167 -0.28463173 C67.47744623 -0.29018494 69.431533 -0.30102868 71.38556862 -0.31719017 C74.11764721 -0.33889283 76.84914824 -0.34196994 79.58129883 -0.34057617 C80.39337799 -0.351362 81.20545715 -0.36214783 82.04214478 -0.3732605 C87.54344507 -0.34279011 87.54344507 -0.34279011 90.02616882 1.52128601 C90.34753311 2.00926163 90.6688974 2.49723724 91 3 C87.55227627 3 84.10541533 2.96223079 80.65795898 2.92407227 C79.5402285 2.91185135 79.5402285 2.91185135 78.3999176 2.89938354 C71.52054052 2.82351554 64.64122009 2.74287313 57.76191616 2.66066074 C53.14623223 2.60559676 48.53054218 2.55218198 43.91479492 2.50268555 C39.44386301 2.45469266 34.97300079 2.40235166 30.5021534 2.34705925 C28.80508222 2.32680653 27.10799222 2.30806737 25.41088676 2.29092598 C16.89179673 2.20387294 8.46779363 2.04828183 0 1 C0 0.67 0 0.34 0 0 Z " fill="#FA5256" transform="translate(473,704)"/>
<path d="M0 0 C0.66 0 1.32 0 2 0 C2.99 2.31 3.98 4.62 5 7 C4.34 7 3.68 7 3 7 C2.99635437 7.79291443 2.99270874 8.58582886 2.98895264 9.402771 C2.95107592 16.87760144 2.89422776 24.35193329 2.81609726 31.82644272 C2.77659821 35.66914318 2.74442198 39.51161367 2.72900391 43.35449219 C2.71385278 47.06358015 2.6794362 50.77203599 2.63169098 54.48084259 C2.61686096 55.89535272 2.60895805 57.30995309 2.60811615 58.72454071 C2.60575002 60.70676704 2.57640694 62.68890549 2.54589844 64.67089844 C2.53701599 65.79896912 2.52813354 66.92703979 2.51898193 68.08929443 C1.89373735 71.59597311 0.71631958 72.78310743 -2 75 C-1.67 74.01 -1.34 73.02 -1 72 C-0.88164222 69.68536296 -0.82298911 67.36753705 -0.79467773 65.05004883 C-0.78477814 64.34735367 -0.77487854 63.64465851 -0.76467896 62.92066956 C-0.73310766 60.59949099 -0.70832387 58.27829195 -0.68359375 55.95703125 C-0.66302044 54.34705577 -0.64202387 52.73708564 -0.62062073 51.12712097 C-0.56543894 46.89063862 -0.51601251 42.65410784 -0.46777344 38.4175415 C-0.41752999 34.09407239 -0.36185877 29.77067356 -0.30664062 25.44726562 C-0.19910666 16.96490319 -0.09765113 8.48248193 0 0 Z " fill="#040C07" transform="translate(740,759)"/>
<path d="M0 0 C0.77943466 0.00222061 1.55886932 0.00444122 2.36192322 0.00672913 C3.68317955 0.00684242 3.68317955 0.00684242 5.03112793 0.00695801 C5.98841293 0.01211929 6.94569794 0.01728058 7.93199158 0.02259827 C9.39480812 0.02472069 9.39480812 0.02472069 10.88717651 0.02688599 C14.01542675 0.03250319 17.14360656 0.04505859 20.27183533 0.05775452 C22.38706867 0.0627673 24.50230313 0.06733059 26.61753845 0.07142639 C31.81482829 0.0824782 37.01207678 0.09923305 42.20933533 0.12025452 C42.70433533 2.59525452 42.70433533 2.59525452 43.20933533 5.12025452 C42.54933533 4.46025452 41.88933533 3.80025452 41.20933533 3.12025452 C39.27247403 2.79090072 39.27247403 2.79090072 37.03501892 2.80140686 C36.17427765 2.78153717 35.31353638 2.76166748 34.42671204 2.74119568 C33.4964621 2.72964447 32.56621216 2.71809326 31.60777283 2.70619202 C30.18037277 2.67714279 30.18037277 2.67714279 28.72413635 2.64750671 C25.67762786 2.5876132 22.63108178 2.54128657 19.58433533 2.49525452 C17.52181863 2.45708372 15.45931803 2.41803253 13.39683533 2.37806702 C8.33446566 2.28190366 3.27202138 2.19790889 -1.79066467 2.12025452 C-3.11066467 7.40025452 -4.43066467 12.68025452 -5.79066467 18.12025452 C-6.12066467 18.12025452 -6.45066467 18.12025452 -6.79066467 18.12025452 C-5.59950227 0.37604218 -5.59950227 0.37604218 0 0 Z " fill="#060D08" transform="translate(614.7906646728516,812.8797454833984)"/>
<path d="M0 0 C16.5 0 33 0 50 0 C48.92643531 4.29425875 48.4915227 4.74740471 45 7 C45.66 5.68 46.32 4.36 47 3 C46.4406778 2.99191315 45.88135559 2.98382629 45.30508423 2.97549438 C39.49774955 2.88961651 33.69076285 2.7901211 27.88378906 2.68261719 C25.71490307 2.64427009 23.54595223 2.60942745 21.37695312 2.578125 C18.26408668 2.53259862 15.15166894 2.47458427 12.0390625 2.4140625 C11.065065 2.40251129 10.0910675 2.39096008 9.08755493 2.37905884 C8.18677216 2.35918915 7.28598938 2.33931946 6.35791016 2.31884766 C5.56293121 2.30552399 4.76795227 2.29220032 3.94888306 2.2784729 C2 2 2 2 0 0 Z " fill="#040C06" transform="translate(471,733)"/>
<path d="M0 0 C3.12822745 3.5318697 4.35016125 7.50529271 5.6875 11.9375 C5.91244141 12.64068359 6.13738281 13.34386719 6.36914062 14.06835938 C7.52059457 17.80271 8.28335979 21.08657162 8 25 C5.40052213 22.40052213 4.9315565 20.07261547 3.875 16.5625 C3.52179688 15.40878906 3.16859375 14.25507812 2.8046875 13.06640625 C2 10 2 10 2 7 C1.34 7 0.68 7 0 7 C0 7.66 0 8.32 0 9 C-0.66 9 -1.32 9 -2 9 C-2.2475 10.216875 -2.495 11.43375 -2.75 12.6875 C-4.12037065 18.90381903 -6.0701587 24.93879942 -8 31 C-8.33 31 -8.66 31 -9 31 C-8.41528819 24.17024122 -6.63317167 18.06053497 -4.5 11.5625 C-4.01853516 10.05526367 -4.01853516 10.05526367 -3.52734375 8.51757812 C-1.14439467 1.14439467 -1.14439467 1.14439467 0 0 Z " fill="#14100A" transform="translate(391,742)"/>
<path d="M0 0 C4.60821999 1.44006875 7.593371 4.08941873 11 7.375 C12.01940212 8.34265582 13.04021897 9.30882361 14.0625 10.2734375 C14.5572583 10.74265625 15.0520166 11.211875 15.56176758 11.6953125 C16.83900505 12.85395399 18.20242761 13.91596155 19.57421875 14.9609375 C22.47524482 17.39948116 24.61574955 20.19428723 26.8125 23.25 C27.21919922 23.80429688 27.62589844 24.35859375 28.04492188 24.9296875 C29.03591711 26.28210453 30.01881466 27.64044907 31 29 C30.67 29.66 30.34 30.32 30 31 C29.50113281 30.35675781 29.00226562 29.71351563 28.48828125 29.05078125 C20.12243197 18.52212713 11.01871707 8.77791793 0 1 C0 0.67 0 0.34 0 0 Z " fill="#E85458" transform="translate(810,180)"/>
<path d="M0 0 C0.33 0.66 0.66 1.32 1 2 C0.1796875 3.76953125 0.1796875 3.76953125 -1.125 5.8125 C-1.74761719 6.81216797 -1.74761719 6.81216797 -2.3828125 7.83203125 C-4.3676047 10.4928034 -6.61833471 12.68726858 -9 15 C-9.99302373 16.00048633 -10.98383555 17.00317195 -11.97265625 18.0078125 C-13.002581 19.04689796 -14.03252915 20.08596023 -15.0625 21.125 C-15.57876953 21.64964844 -16.09503906 22.17429687 -16.62695312 22.71484375 C-19.27685063 25.38161959 -21.91028006 27.8512739 -25 30 C-25.66 29.67 -26.32 29.34 -27 29 C-26.16597656 28.24976563 -25.33195313 27.49953125 -24.47265625 26.7265625 C-15.42154717 18.52096078 -6.86040794 10.17996017 0 0 Z " fill="#F7585D" transform="translate(841,817)"/>
<path d="M0 0 C3.5343514 1.37497953 6.9601811 2.8906002 10.37890625 4.53125 C11.38244141 5.01207031 12.38597656 5.49289062 13.41992188 5.98828125 C14.45697266 6.48714844 15.49402344 6.98601563 16.5625 7.5 C17.60341797 7.99886719 18.64433594 8.49773438 19.71679688 9.01171875 C27.96834542 12.97033947 27.96834542 12.97033947 32 15 C28.58389894 16.13870035 28.0853818 15.90775963 24.90234375 14.59375 C24.10481689 14.26511963 23.30729004 13.93648926 22.4855957 13.59790039 C21.22428833 13.0544397 21.22428833 13.0544397 19.9375 12.5 C19.08438232 12.13704834 18.23126465 11.77409668 17.35229492 11.40014648 C11.04276505 8.63630918 5.19392265 5.60643526 0 1 C0 0.67 0 0.34 0 0 Z " fill="#140F0A" transform="translate(199,883)"/>
<path d="M0 0 C2.75495753 2.36139217 3.69238528 4.41052654 4.6875 7.875 C4.93886719 8.71804688 5.19023438 9.56109375 5.44921875 10.4296875 C6.00715419 13.03338621 6.09988136 15.34600969 6 18 C4.33167423 15.49751135 3.37618326 13.58850813 2.375 10.8125 C2.11460937 10.09707031 1.85421875 9.38164063 1.5859375 8.64453125 C1.39257812 8.10183594 1.19921875 7.55914063 1 7 C-1.10232344 9.8684413 -1.10232344 9.8684413 -2 13 C-2.66 13 -3.32 13 -4 13 C-3.52343588 11.20763933 -3.04366502 9.41613103 -2.5625 7.625 C-2.29566406 6.62726562 -2.02882813 5.62953125 -1.75390625 4.6015625 C-1 2 -1 2 0 0 Z " fill="#120E09" transform="translate(634,742)"/>
<path d="M0 0 C0.99 0 1.98 0 3 0 C2 3 2 3 -0.58203125 4.421875 C-1.64808594 4.86015625 -2.71414063 5.2984375 -3.8125 5.75 C-4.87082031 6.19859375 -5.92914062 6.6471875 -7.01953125 7.109375 C-9.97380744 7.99217313 -11.1900769 8.11580482 -14 7 C-12.04350603 6.16235732 -10.08474444 5.33000941 -8.125 4.5 C-6.48917969 3.80390625 -6.48917969 3.80390625 -4.8203125 3.09375 C-2 2 -2 2 0 2 C0 1.34 0 0.68 0 0 Z " fill="#120E0A" transform="translate(792,856)"/>
<path d="M0 0 C0.66 0.33 1.32 0.66 2 1 C0.68775452 4.93673644 -0.91910327 7.22719294 -4 10 C-4.33 9.01 -4.66 8.02 -5 7 C-2 2 -2 2 0 0 Z " fill="#05B8DE" transform="translate(281,379)"/>
<path d="M0 0 C0.66 0.33 1.32 0.66 2 1 C1.05125 1.9075 0.1025 2.815 -0.875 3.75 C-3.14549867 6.00978877 -4.83296506 7.96570916 -6 11 C-7.21744727 7.34765818 -6.64202228 6.37046678 -5 3 C-3 1 -3 1 0 0 Z " fill="#059CCA" transform="translate(450,540)"/>
<path d="M0 0 C0.33 0.66 0.66 1.32 1 2 C0.14453125 3.91015625 0.14453125 3.91015625 -1.1875 6.0625 C-1.82751953 7.13177734 -1.82751953 7.13177734 -2.48046875 8.22265625 C-4.25241746 10.29524408 -5.34385824 10.63030147 -8 11 C-7.59007812 10.45730469 -7.18015625 9.91460938 -6.7578125 9.35546875 C-6.21898437 8.64003906 -5.68015625 7.92460938 -5.125 7.1875 C-4.59132813 6.47980469 -4.05765625 5.77210938 -3.5078125 5.04296875 C-2.29185219 3.39543703 -1.13583859 1.70375789 0 0 Z " fill="#EF5357" transform="translate(841,817)"/>
<path d="M0 0 C-1.8125 2 -1.8125 2 -4 4 C-4.99 4 -5.98 4 -7 4 C-7.33 3.01 -7.66 2.02 -8 1 C-3.375 -1.125 -3.375 -1.125 0 0 Z " fill="#EE4B4F" transform="translate(228,135)"/>
<path d="M0 0 C0.99 0.33 1.98 0.66 3 1 C2.34 1 1.68 1 1 1 C0.67 1.99 0.34 2.98 0 4 C-3.0625 5.1875 -3.0625 5.1875 -6 6 C-2.25 1.125 -2.25 1.125 0 0 Z " fill="#04C2E6" transform="translate(615,377)"/>
</svg>
